<svg width="465" height="102" viewBox="0 0 465 102" fill="none" xmlns="http://www.w3.org/2000/svg">
<path d="M463.077 83.4614C463.077 83.5649 463.005 83.892 462.307 84.4183C461.635 84.9248 460.568 85.4703 459.061 86.0339C456.061 87.1564 451.577 88.2587 445.724 89.3183C434.035 91.4343 417.084 93.3455 396.098 94.9523C354.135 98.1652 296.145 100.154 232.077 100.154C168.009 100.154 110.018 98.1652 68.0559 94.9523C47.0694 93.3455 30.119 91.4343 18.4295 89.3183C12.5765 88.2587 8.09243 87.1564 5.09232 86.0339C3.58602 85.4703 2.51825 84.9248 1.84644 84.4183C1.14839 83.892 1.07686 83.5649 1.07686 83.4614C1.07686 83.3578 1.14839 83.0308 1.84644 82.5045C2.51825 81.998 3.58602 81.4525 5.09232 80.8889C8.09243 79.7663 12.5765 78.664 18.4295 77.6045C30.119 75.4884 47.0694 73.5773 68.0559 71.9704C110.018 68.7575 168.009 66.7691 232.077 66.7691C296.145 66.7691 354.135 68.7575 396.098 71.9704C417.084 73.5773 434.035 75.4884 445.724 77.6045C451.577 78.664 456.061 79.7663 459.061 80.8889C460.568 81.4525 461.635 81.998 462.307 82.5045C463.005 83.0308 463.077 83.3578 463.077 83.4614Z" stroke="#007AFF" stroke-opacity="0.86" stroke-width="2.15385"/>
<path d="M419.462 83.4615C419.462 83.5916 419.35 83.8739 418.722 84.2735C418.126 84.6525 417.204 85.046 415.944 85.444C413.43 86.2375 409.697 87.0102 404.855 87.7499C395.178 89.228 381.16 90.5612 363.82 91.6814C329.146 93.9216 281.235 95.3077 228.308 95.3077C175.381 95.3077 127.47 93.9216 92.7958 91.6814C75.4562 90.5612 61.4382 89.228 51.7612 87.7499C46.9188 87.0102 43.1856 86.2375 40.6723 85.444C39.4119 85.046 38.4903 84.6525 37.8944 84.2735C37.2664 83.8739 37.1542 83.5916 37.1542 83.4615C37.1542 83.3314 37.2664 83.0491 37.8944 82.6496C38.4903 82.2705 39.4119 81.877 40.6723 81.4791C43.1856 80.6856 46.9188 79.9128 51.7612 79.1732C61.4382 77.695 75.4562 76.3619 92.7958 75.2416C127.47 73.0014 175.381 71.6154 228.308 71.6154C281.235 71.6154 329.146 73.0014 363.82 75.2416C381.16 76.3619 395.178 77.695 404.855 79.1732C409.697 79.9128 413.43 80.6856 415.944 81.4791C417.204 81.877 418.126 82.2705 418.722 82.6496C419.35 83.0491 419.462 83.3314 419.462 83.4615Z" fill="#007AFF" fill-opacity="0.21" stroke="#007AFF" stroke-width="1.07692"/>
</svg>
