<svg width="36" height="25" viewBox="0 0 36 25" fill="none" xmlns="http://www.w3.org/2000/svg">
<g clip-path="url(#clip0_1_1402)">
<path d="M7.68744 22.5005C8.5849 22.5005 9.31243 21.7729 9.31243 20.8755C9.31243 19.978 8.5849 19.2505 7.68744 19.2505C6.78997 19.2505 6.06244 19.978 6.06244 20.8755C6.06244 21.7729 6.78997 22.5005 7.68744 22.5005Z" fill="#B2B5B9"/>
<path d="M15.8125 22.5005C16.71 22.5005 17.4375 21.7729 17.4375 20.8755C17.4375 19.978 16.71 19.2505 15.8125 19.2505C14.915 19.2505 14.1875 19.978 14.1875 20.8755C14.1875 21.7729 14.915 22.5005 15.8125 22.5005Z" fill="#B2B5B9"/>
<path d="M20.6745 7.88963C20.1026 7.34273 19.3369 7.04523 18.5457 7.0625H6.59387L6.38019 5.38713C6.30259 4.72956 5.98643 4.12333 5.49164 3.68334C4.99684 3.24336 4.35781 3.00021 3.69569 3H3.21875C2.89552 3 2.58552 3.1284 2.35696 3.35696C2.1284 3.58552 2 3.89552 2 4.21875V4.21875C2 4.54198 2.1284 4.85198 2.35696 5.08054C2.58552 5.3091 2.89552 5.4375 3.21875 5.4375H3.69569C3.76216 5.43821 3.82601 5.46352 3.87492 5.50853C3.92383 5.55354 3.95434 5.61507 3.96056 5.68125L5.17931 15.2354C5.25618 15.8935 5.57205 16.5004 6.06694 16.941C6.56183 17.3815 7.20127 17.6249 7.86381 17.625H16.0879C17.0662 17.6244 18.0173 17.3028 18.7952 16.7096C19.5731 16.1163 20.1348 15.2842 20.3942 14.3409L21.4066 10.6594C21.5415 10.1743 21.5448 9.66205 21.4162 9.17525C21.2875 8.68844 21.0315 8.24469 20.6745 7.88963ZM18.0469 13.6949C17.9279 14.1234 17.6721 14.5011 17.3184 14.7706C16.9647 15.0401 16.5326 15.1865 16.0879 15.1875H7.86381C7.79738 15.187 7.73353 15.1617 7.68471 15.1166C7.63589 15.0716 7.6056 15.0099 7.59975 14.9437L6.90506 9.5H18.6676C18.7304 9.49953 18.7924 9.51361 18.8488 9.54112C18.9052 9.56864 18.9545 9.60885 18.9927 9.65859C19.031 9.70834 19.0572 9.76627 19.0693 9.82785C19.0814 9.88943 19.0791 9.95297 19.0625 10.0135L18.0469 13.6949Z" fill="#B2B5B9"/>
</g>
<rect x="18" width="18" height="18" rx="9" fill="#FF1A6C"/>
<path d="M26.72 14.16C24.032 14.16 22.688 13.1787 22.688 11.216C22.688 10.6293 22.8427 10.1067 23.152 9.648C23.472 9.18933 23.9253 8.864 24.512 8.672C23.9787 8.46933 23.5893 8.17067 23.344 7.776C23.0987 7.37067 22.976 6.93867 22.976 6.48C22.976 5.59467 23.28 4.88533 23.888 4.352C24.5067 3.808 25.4507 3.536 26.72 3.536C28.0213 3.536 28.9707 3.808 29.568 4.352C30.1653 4.88533 30.464 5.59467 30.464 6.48C30.464 6.97067 30.3413 7.42933 30.096 7.856C29.8613 8.272 29.4453 8.592 28.848 8.816C29.5093 9.008 29.9893 9.30667 30.288 9.712C30.5867 10.1067 30.736 10.608 30.736 11.216C30.736 13.1787 29.3973 14.16 26.72 14.16ZM27.152 8.272C27.7387 8.12267 28.1653 7.92 28.432 7.664C28.7093 7.408 28.848 7.024 28.848 6.512C28.848 5.44533 28.1387 4.912 26.72 4.912C26.0267 4.912 25.4987 5.04 25.136 5.296C24.7733 5.552 24.592 5.95733 24.592 6.512C24.592 7.35467 25.0667 7.86667 26.016 8.048L27.152 8.272ZM26.72 12.8C27.52 12.8 28.1173 12.672 28.512 12.416C28.9173 12.1493 29.12 11.7387 29.12 11.184C29.12 10.6827 28.976 10.32 28.688 10.096C28.4107 9.86133 27.9787 9.68533 27.392 9.568L26.08 9.296C25.536 9.41333 25.104 9.61067 24.784 9.888C24.464 10.1547 24.304 10.576 24.304 11.152C24.304 11.728 24.5067 12.1493 24.912 12.416C25.328 12.672 25.9307 12.8 26.72 12.8Z" fill="white"/>
<defs>
<clipPath id="clip0_1_1402">
<rect width="19.5" height="19.5" fill="white" transform="translate(2 3)"/>
</clipPath>
</defs>
</svg>
