<svg width="232" height="48" viewBox="0 0 232 48" fill="none" xmlns="http://www.w3.org/2000/svg">
<path d="M9.02897 8.92107L9.03915 8.91103L9.0488 8.90048L16.6799 0.5625H231.438V32.433L224.086 39.9303L224.079 39.9375L216.453 47.4366L0.5625 46.5876V17.2766L9.02897 8.92107Z" stroke="#4996D5" stroke-width="1.125"/>
<path d="M11.8596 10.857L18.5965 3.99988H228V31.1427L221.263 37.1427L213.965 43.9999H4V18.2856L11.8596 10.857Z" fill="#4996D5"/>
<path d="M60.7029 30.9999L65.1489 19.4079H68.7309L73.1769 30.9999H69.6489L68.6769 28.5339H65.1849L64.2309 30.9999H60.7029ZM65.6349 26.1039H68.2269L66.9309 22.7019L65.6349 26.1039ZM78.2933 31.1799C76.7453 31.1799 75.5213 30.8139 74.6213 30.0819C73.7213 29.3379 73.2713 28.2219 73.2713 26.7339C73.2713 25.7259 73.4813 24.8919 73.9013 24.2319C74.3213 23.5719 74.9093 23.0859 75.6653 22.7739C76.4213 22.4499 77.3033 22.2879 78.3113 22.2879C78.9473 22.2879 79.5173 22.3359 80.0213 22.4319C80.5253 22.5159 81.0053 22.6659 81.4613 22.8819V25.2579C80.7533 24.9219 79.9493 24.7539 79.0493 24.7539C78.2813 24.7539 77.6993 24.8979 77.3033 25.1859C76.9193 25.4739 76.7273 25.9899 76.7273 26.7339C76.7273 27.4299 76.9133 27.9339 77.2853 28.2459C77.6573 28.5579 78.2453 28.7139 79.0493 28.7139C79.4813 28.7139 79.9013 28.6659 80.3093 28.5699C80.7173 28.4619 81.1073 28.3119 81.4793 28.1199V30.6039C81.0233 30.8079 80.5313 30.9519 80.0033 31.0359C79.4873 31.1319 78.9173 31.1799 78.2933 31.1799ZM87.4348 31.1799C86.4388 31.1799 85.5568 31.0179 84.7888 30.6939C84.0328 30.3579 83.4388 29.8599 83.0068 29.1999C82.5868 28.5399 82.3768 27.7239 82.3768 26.7519C82.3768 25.3959 82.7608 24.3159 83.5288 23.5119C84.2968 22.6959 85.4428 22.2879 86.9668 22.2879C88.3588 22.2879 89.4448 22.6419 90.2248 23.3499C91.0168 24.0579 91.4128 25.0239 91.4128 26.2479V27.7419H85.4908C85.6468 28.1979 85.9528 28.5219 86.4088 28.7139C86.8648 28.9059 87.4828 29.0019 88.2628 29.0019C88.7548 29.0019 89.2468 28.9599 89.7388 28.8759C90.2428 28.7799 90.6448 28.6719 90.9448 28.5519V30.5859C90.1048 30.9819 88.9348 31.1799 87.4348 31.1799ZM85.4908 25.9059H88.4968V25.5999C88.4968 25.2639 88.3888 24.9879 88.1728 24.7719C87.9688 24.5559 87.6028 24.4479 87.0748 24.4479C86.4868 24.4479 86.0728 24.5739 85.8328 24.8259C85.6048 25.0659 85.4908 25.4259 85.4908 25.9059ZM95.9105 31.1799C95.1785 31.1799 94.4885 31.1259 93.8405 31.0179C93.2045 30.9219 92.7005 30.7959 92.3285 30.6399V28.2099C92.7485 28.4019 93.2465 28.5519 93.8225 28.6599C94.4105 28.7679 94.9085 28.8219 95.3165 28.8219C95.7485 28.8219 96.0725 28.8099 96.2885 28.7859C96.5165 28.7619 96.6305 28.6599 96.6305 28.4799C96.6305 28.2759 96.4325 28.1199 96.0365 28.0119C95.6405 27.9039 95.1425 27.7479 94.5425 27.5439C93.7625 27.2679 93.1805 26.9439 92.7965 26.5719C92.4125 26.1999 92.2205 25.6599 92.2205 24.9519C92.2205 24.0999 92.5565 23.4459 93.2285 22.9899C93.9005 22.5219 94.9565 22.2879 96.3965 22.2879C96.9485 22.2879 97.5185 22.3299 98.1065 22.4139C98.6945 22.4979 99.1565 22.5939 99.4925 22.7019V25.0779C99.1325 24.9219 98.7365 24.8079 98.3045 24.7359C97.8845 24.6639 97.5005 24.6279 97.1525 24.6279C96.7685 24.6279 96.4265 24.6459 96.1265 24.6819C95.8265 24.7179 95.6765 24.8199 95.6765 24.9879C95.6765 25.1799 95.8445 25.3179 96.1805 25.4019C96.5285 25.4859 96.9905 25.6179 97.5665 25.7979C98.2145 25.9899 98.7185 26.1999 99.0785 26.4279C99.4505 26.6559 99.7085 26.9319 99.8525 27.2559C100.009 27.5799 100.087 27.9819 100.087 28.4619C100.087 29.3259 99.7325 29.9979 99.0245 30.4779C98.3285 30.9459 97.2905 31.1799 95.9105 31.1799ZM104.225 31.1799C103.493 31.1799 102.803 31.1259 102.155 31.0179C101.519 30.9219 101.015 30.7959 100.643 30.6399V28.2099C101.063 28.4019 101.561 28.5519 102.137 28.6599C102.725 28.7679 103.223 28.8219 103.631 28.8219C104.063 28.8219 104.387 28.8099 104.603 28.7859C104.831 28.7619 104.945 28.6599 104.945 28.4799C104.945 28.2759 104.747 28.1199 104.351 28.0119C103.955 27.9039 103.457 27.7479 102.857 27.5439C102.077 27.2679 101.495 26.9439 101.111 26.5719C100.727 26.1999 100.535 25.6599 100.535 24.9519C100.535 24.0999 100.871 23.4459 101.543 22.9899C102.215 22.5219 103.271 22.2879 104.711 22.2879C105.263 22.2879 105.833 22.3299 106.421 22.4139C107.009 22.4979 107.471 22.5939 107.807 22.7019V25.0779C107.447 24.9219 107.051 24.8079 106.619 24.7359C106.199 24.6639 105.815 24.6279 105.467 24.6279C105.083 24.6279 104.741 24.6459 104.441 24.6819C104.141 24.7179 103.991 24.8199 103.991 24.9879C103.991 25.1799 104.159 25.3179 104.495 25.4019C104.843 25.4859 105.305 25.6179 105.881 25.7979C106.529 25.9899 107.033 26.1999 107.393 26.4279C107.765 26.6559 108.023 26.9319 108.167 27.2559C108.323 27.5799 108.401 27.9819 108.401 28.4619C108.401 29.3259 108.047 29.9979 107.339 30.4779C106.643 30.9459 105.605 31.1799 104.225 31.1799ZM112.067 31.1799C111.527 31.1799 111.023 31.0839 110.555 30.8919C110.099 30.6999 109.733 30.3999 109.457 29.9919C109.181 29.5839 109.043 29.0679 109.043 28.4439C109.043 27.5439 109.343 26.8479 109.943 26.3559C110.543 25.8519 111.449 25.5999 112.661 25.5999H114.875V25.4379C114.875 25.1019 114.737 24.8559 114.461 24.6999C114.185 24.5439 113.699 24.4659 113.003 24.4659C112.019 24.4659 111.047 24.6159 110.087 24.9159V22.8819C110.519 22.7139 111.059 22.5759 111.707 22.4679C112.355 22.3479 113.015 22.2879 113.687 22.2879C115.043 22.2879 116.117 22.5639 116.909 23.1159C117.701 23.6679 118.097 24.5439 118.097 25.7439V30.9999H115.145L114.983 30.3159C114.683 30.5799 114.293 30.7899 113.813 30.9459C113.345 31.1019 112.763 31.1799 112.067 31.1799ZM113.219 29.1999C113.603 29.1999 113.927 29.1339 114.191 29.0019C114.467 28.8699 114.695 28.7079 114.875 28.5159V27.4539H113.237C112.493 27.4539 112.121 27.7479 112.121 28.3359C112.121 28.9119 112.487 29.1999 113.219 29.1999ZM119.633 30.9999V22.4679H122.891L122.981 23.1519C123.329 22.9479 123.773 22.7619 124.313 22.5939C124.853 22.4259 125.399 22.3239 125.951 22.2879V24.8079C125.639 24.8319 125.297 24.8739 124.925 24.9339C124.565 24.9939 124.211 25.0719 123.863 25.1679C123.527 25.2519 123.245 25.3479 123.017 25.4559V30.9999H119.633ZM132.636 31.1799C132.132 31.1799 131.652 31.1439 131.196 31.0719C130.74 31.0119 130.302 30.9099 129.882 30.7659V27.9579C130.17 28.0779 130.494 28.1679 130.854 28.2279C131.214 28.2879 131.574 28.3179 131.934 28.3179C132.582 28.3179 133.044 28.1859 133.32 27.9219C133.596 27.6579 133.734 27.2199 133.734 26.6079V19.4079H137.118V27.1479C137.118 28.4079 136.734 29.3979 135.966 30.1179C135.21 30.8259 134.1 31.1799 132.636 31.1799ZM143.279 31.1799C141.575 31.1799 140.315 30.8019 139.499 30.0459C138.695 29.2899 138.293 28.1859 138.293 26.7339C138.293 25.2939 138.701 24.1959 139.517 23.4399C140.333 22.6719 141.587 22.2879 143.279 22.2879C144.983 22.2879 146.243 22.6719 147.059 23.4399C147.887 24.1959 148.301 25.2939 148.301 26.7339C148.301 28.1859 147.893 29.2899 147.077 30.0459C146.261 30.8019 144.995 31.1799 143.279 31.1799ZM143.279 28.7139C143.831 28.7139 144.227 28.5579 144.467 28.2459C144.719 27.9339 144.845 27.4299 144.845 26.7339C144.845 26.0499 144.719 25.5519 144.467 25.2399C144.227 24.9159 143.831 24.7539 143.279 24.7539C142.739 24.7539 142.349 24.9159 142.109 25.2399C141.869 25.5519 141.749 26.0499 141.749 26.7339C141.749 27.4299 141.869 27.9339 142.109 28.2459C142.349 28.5579 142.739 28.7139 143.279 28.7139ZM153.313 34.1679C152.893 34.1679 152.437 34.1499 151.945 34.1139C151.453 34.0899 150.985 34.0419 150.541 33.9699C150.109 33.8979 149.749 33.8139 149.461 33.7179V31.5579C149.785 31.6659 150.157 31.7559 150.577 31.8279C151.009 31.8999 151.447 31.9539 151.891 31.9899C152.335 32.0259 152.743 32.0439 153.115 32.0439C153.751 32.0439 154.249 32.0079 154.609 31.9359C154.981 31.8759 155.167 31.7619 155.167 31.5939C155.167 31.4499 155.107 31.3539 154.987 31.3059C154.867 31.2699 154.639 31.2519 154.303 31.2519H152.053C151.177 31.2519 150.499 31.1139 150.019 30.8379C149.551 30.5499 149.317 30.1239 149.317 29.5599C149.317 28.7679 149.755 28.2159 150.631 27.9039C150.139 27.6519 149.779 27.3339 149.551 26.9499C149.323 26.5659 149.209 26.0799 149.209 25.4919C149.209 24.3879 149.581 23.5779 150.325 23.0619C151.081 22.5459 152.167 22.2879 153.583 22.2879C153.883 22.2879 154.219 22.3119 154.591 22.3599C154.963 22.3959 155.233 22.4319 155.401 22.4679H158.749L158.677 24.5199H157.543C157.759 24.7959 157.867 25.1319 157.867 25.5279C157.867 26.4039 157.609 27.0999 157.093 27.6159C156.589 28.1199 155.791 28.3719 154.699 28.3719C154.543 28.3719 154.375 28.3659 154.195 28.3539C154.015 28.3299 153.847 28.3119 153.691 28.2999C153.427 28.3239 153.199 28.3719 153.007 28.4439C152.815 28.5159 152.719 28.6359 152.719 28.8039C152.719 28.9239 152.773 29.0079 152.881 29.0559C152.989 29.0919 153.139 29.1099 153.331 29.1099H155.293C156.169 29.1099 156.859 29.3139 157.363 29.7219C157.867 30.1299 158.119 30.7299 158.119 31.5219C158.119 32.3619 157.729 33.0099 156.949 33.4659C156.169 33.9339 154.957 34.1679 153.313 34.1679ZM153.601 26.5179C154.129 26.5179 154.495 26.4279 154.699 26.2479C154.903 26.0679 155.005 25.7679 155.005 25.3479C155.005 24.9279 154.903 24.6219 154.699 24.4299C154.495 24.2379 154.129 24.1419 153.601 24.1419C153.109 24.1419 152.749 24.2379 152.521 24.4299C152.305 24.6099 152.197 24.9159 152.197 25.3479C152.197 25.7559 152.299 26.0559 152.503 26.2479C152.719 26.4279 153.085 26.5179 153.601 26.5179ZM164.267 31.1799C162.563 31.1799 161.303 30.8019 160.487 30.0459C159.683 29.2899 159.281 28.1859 159.281 26.7339C159.281 25.2939 159.689 24.1959 160.505 23.4399C161.321 22.6719 162.575 22.2879 164.267 22.2879C165.971 22.2879 167.231 22.6719 168.047 23.4399C168.875 24.1959 169.289 25.2939 169.289 26.7339C169.289 28.1859 168.881 29.2899 168.065 30.0459C167.249 30.8019 165.983 31.1799 164.267 31.1799ZM164.267 28.7139C164.819 28.7139 165.215 28.5579 165.455 28.2459C165.707 27.9339 165.833 27.4299 165.833 26.7339C165.833 26.0499 165.707 25.5519 165.455 25.2399C165.215 24.9159 164.819 24.7539 164.267 24.7539C163.727 24.7539 163.337 24.9159 163.097 25.2399C162.857 25.5519 162.737 26.0499 162.737 26.7339C162.737 27.4299 162.857 27.9339 163.097 28.2459C163.337 28.5579 163.727 28.7139 164.267 28.7139Z" fill="white"/>
</svg>
