<svg width="140" height="32" viewBox="0 0 140 32" fill="none" xmlns="http://www.w3.org/2000/svg">
<path d="M6 4.5L11 0H140V23.6L134.5 28L129.5 32H0V10.4L6 4.5Z" fill="white"/>
<path d="M21.0861 22V11.696H22.8301V20.656H28.1101V22H21.0861ZM31.8604 22.16C31.3804 22.16 30.9324 22.0747 30.5164 21.904C30.111 21.7333 29.7857 21.4773 29.5404 21.136C29.295 20.784 29.1724 20.352 29.1724 19.84C29.1724 19.1147 29.4177 18.5333 29.9084 18.096C30.4097 17.648 31.1777 17.424 32.2124 17.424H34.6444V17.088C34.6444 16.7253 34.5857 16.4373 34.4684 16.224C34.3617 16.0107 34.159 15.856 33.8604 15.76C33.5724 15.664 33.1457 15.616 32.5804 15.616C31.6844 15.616 30.847 15.7493 30.0684 16.016V14.72C30.4097 14.5813 30.8257 14.4693 31.3164 14.384C31.807 14.2987 32.335 14.256 32.9004 14.256C34.0097 14.256 34.8524 14.48 35.4284 14.928C36.015 15.376 36.3084 16.1067 36.3084 17.12V22H34.8204L34.7084 21.232C34.399 21.5307 34.015 21.76 33.5564 21.92C33.1084 22.08 32.543 22.16 31.8604 22.16ZM32.3244 20.912C32.847 20.912 33.3004 20.8267 33.6844 20.656C34.079 20.4747 34.399 20.2347 34.6444 19.936V18.608H32.2444C31.7324 18.608 31.359 18.7093 31.1244 18.912C30.9004 19.104 30.7884 19.4027 30.7884 19.808C30.7884 20.2027 30.9217 20.4853 31.1884 20.656C31.455 20.8267 31.8337 20.912 32.3244 20.912ZM38.2424 22V14.416H39.8424L39.9224 15.216C40.2637 14.9493 40.669 14.7253 41.1384 14.544C41.6184 14.352 42.1464 14.256 42.7224 14.256C43.7037 14.256 44.4184 14.4853 44.8664 14.944C45.3144 15.4027 45.5384 16.1173 45.5384 17.088V22H43.8104V17.168C43.8104 16.5813 43.6877 16.1707 43.4424 15.936C43.2077 15.7013 42.7597 15.584 42.0984 15.584C41.7037 15.584 41.3144 15.664 40.9304 15.824C40.557 15.984 40.2424 16.192 39.9864 16.448V22H38.2424ZM50.4721 22.16C49.7895 22.16 49.1868 22.0427 48.6641 21.808C48.1415 21.5733 47.7361 21.184 47.4481 20.64C47.1601 20.096 47.0161 19.3653 47.0161 18.448C47.0161 17.5413 47.1708 16.7787 47.4801 16.16C47.7895 15.5307 48.2161 15.056 48.7601 14.736C49.3148 14.416 49.9388 14.256 50.6321 14.256C51.0908 14.256 51.4961 14.3093 51.8481 14.416C52.2108 14.5227 52.5575 14.688 52.8881 14.912V11.216H54.6321V22H53.1441L53.0321 21.248C52.6908 21.5573 52.3175 21.7867 51.9121 21.936C51.5068 22.0853 51.0268 22.16 50.4721 22.16ZM50.9361 20.848C51.7148 20.848 52.3655 20.5813 52.8881 20.048V16.256C52.3868 15.808 51.7575 15.584 51.0001 15.584C50.2641 15.584 49.7095 15.8293 49.3361 16.32C48.9628 16.8107 48.7761 17.5253 48.7761 18.464C48.7761 19.3707 48.9468 19.9947 49.2881 20.336C49.6401 20.6773 50.1895 20.848 50.9361 20.848ZM58.9385 22.16C58.4585 22.16 58.0105 22.0747 57.5945 21.904C57.1892 21.7333 56.8638 21.4773 56.6185 21.136C56.3732 20.784 56.2505 20.352 56.2505 19.84C56.2505 19.1147 56.4958 18.5333 56.9865 18.096C57.4878 17.648 58.2558 17.424 59.2905 17.424H61.7225V17.088C61.7225 16.7253 61.6638 16.4373 61.5465 16.224C61.4398 16.0107 61.2372 15.856 60.9385 15.76C60.6505 15.664 60.2238 15.616 59.6585 15.616C58.7625 15.616 57.9252 15.7493 57.1465 16.016V14.72C57.4878 14.5813 57.9038 14.4693 58.3945 14.384C58.8852 14.2987 59.4132 14.256 59.9785 14.256C61.0878 14.256 61.9305 14.48 62.5065 14.928C63.0932 15.376 63.3865 16.1067 63.3865 17.12V22H61.8985L61.7865 21.232C61.4772 21.5307 61.0932 21.76 60.6345 21.92C60.1865 22.08 59.6212 22.16 58.9385 22.16ZM59.4025 20.912C59.9252 20.912 60.3785 20.8267 60.7625 20.656C61.1572 20.4747 61.4772 20.2347 61.7225 19.936V18.608H59.3225C58.8105 18.608 58.4372 18.7093 58.2025 18.912C57.9785 19.104 57.8665 19.4027 57.8665 19.808C57.8665 20.2027 57.9998 20.4853 58.2665 20.656C58.5332 20.8267 58.9118 20.912 59.4025 20.912ZM65.3205 22V14.416H66.9205L67.0165 15.296C67.3792 15.0613 67.8112 14.848 68.3125 14.656C68.8138 14.464 69.3098 14.3307 69.8005 14.256V15.584C69.5018 15.6373 69.1765 15.7173 68.8245 15.824C68.4832 15.92 68.1578 16.032 67.8485 16.16C67.5392 16.2773 67.2778 16.4 67.0645 16.528V22H65.3205ZM71.7105 12.832V11.392H73.6145V12.832H71.7105ZM71.8545 22V15.744H70.7025L70.8625 14.416H73.5985V22H71.8545ZM79.265 22.16C77.8997 22.16 76.897 21.8187 76.257 21.136C75.6277 20.4533 75.313 19.4773 75.313 18.208C75.313 16.9387 75.633 15.9627 76.273 15.28C76.913 14.5973 77.9103 14.256 79.265 14.256C80.6303 14.256 81.633 14.5973 82.273 15.28C82.913 15.9627 83.233 16.9387 83.233 18.208C83.233 19.4773 82.913 20.4533 82.273 21.136C81.6437 21.8187 80.641 22.16 79.265 22.16ZM79.265 20.688C80.065 20.688 80.6303 20.496 80.961 20.112C81.3023 19.7173 81.473 19.0827 81.473 18.208C81.473 17.3333 81.3023 16.704 80.961 16.32C80.6303 15.936 80.065 15.744 79.265 15.744C78.4757 15.744 77.9103 15.936 77.569 16.32C77.2383 16.704 77.073 17.3333 77.073 18.208C77.073 19.0827 77.2383 19.7173 77.569 20.112C77.9103 20.496 78.4757 20.688 79.265 20.688Z" fill="black"/>
<path d="M122 12L115.414 18.5858C114.633 19.3668 113.367 19.3668 112.586 18.5858L106 12" stroke="#568EFF" stroke-width="2" stroke-linejoin="round"/>
</svg>
