<svg width="195" height="33" viewBox="0 0 195 33" fill="none" xmlns="http://www.w3.org/2000/svg">
<path d="M123.193 28.5749C122.504 28.2107 121.878 27.7805 121.314 27.284C120.75 26.7875 120.285 26.2689 119.917 25.7281C119.77 25.5296 119.67 25.3698 119.615 25.2482C119.56 25.127 119.55 25.0112 119.585 24.9006C119.613 24.8124 119.673 24.7186 119.765 24.6193C119.857 24.5201 125.142 20.1562 125.254 20.1009C125.365 20.0458 125.465 20.0181 125.553 20.0181C125.652 20.0181 125.75 20.0488 125.846 20.1092C125.943 20.17 126.929 21.0277 127.219 21.3258C127.909 22.032 128.528 22.512 129.075 22.7658C129.408 22.9311 129.773 23.0139 130.17 23.0139C131.239 23.0139 131.909 22.5893 132.179 21.7396C132.285 21.4085 132.203 21.0941 131.934 20.7962C131.798 20.6514 131.524 20.4802 131.233 20.3227C130.736 20.053 130.21 19.8418 129.673 19.6657C127.276 18.8802 125.733 17.7841 125.042 16.3771C124.709 15.6932 124.554 14.9428 124.577 14.1262C124.6 13.3098 124.767 12.4106 125.08 11.4284C125.414 10.3803 125.937 9.42032 126.65 8.54857C127.362 7.67695 128.227 6.9266 129.243 6.29766C130.247 5.66871 131.364 5.18885 132.594 4.85766C133.823 4.52674 135.116 4.36108 136.471 4.36108C138.257 4.36108 139.724 4.58196 140.873 5.02319C142.206 5.54196 143.277 6.40262 144.084 7.60515C144.15 7.81494 144.151 8.01897 144.088 8.21752C143.986 8.53774 143.679 8.91265 143.167 9.34304L139.39 12.5374C139.143 12.7581 138.899 12.8684 138.656 12.8684C138.337 12.8684 138.033 12.6974 137.745 12.3553C137.394 11.9361 136.935 11.5774 136.368 11.2795C135.809 10.9927 135.293 10.8491 134.819 10.8491C134.346 10.8491 133.933 10.9319 133.583 11.0972C133.142 11.307 132.851 11.6326 132.71 12.0738C132.629 12.3277 132.643 12.5455 132.75 12.7275C132.858 12.9096 133.039 13.0667 133.294 13.1992C133.535 13.3427 134.956 13.795 134.956 13.795C136.226 14.2364 137.254 14.6502 138.041 15.0363C138.827 15.4227 139.461 15.8804 139.943 16.4099C140.487 17.017 140.814 17.7481 140.922 18.6029C141.03 19.458 140.889 20.498 140.5 21.7227C140.096 22.9917 139.482 24.1309 138.659 25.1405C137.837 26.15 136.85 27.0082 135.699 27.714C134.589 28.3983 133.357 28.9198 132.003 29.2781C130.649 29.6366 129.256 29.8159 127.823 29.8159C126.269 29.8159 124.726 29.4022 123.193 28.5747L123.193 28.5749Z" fill="white"/>
<path d="M3.86239 23.7881L5.54345 26.4342L7.22467 29.0805H3.86239H0.5L2.1812 26.4342L3.86239 23.7881Z" fill="#568EFF"/>
<path d="M18.6004 0.836182L10.1641 14.1709L13.5386 19.6136L18.6004 11.7217L23.6622 19.6136L27.0368 14.1709L18.6004 0.836182Z" fill="#568EFF"/>
<path d="M35.4019 5.05841C35.3448 5.0417 35.2836 5.06497 35.2517 5.11497L23.6616 23.3355L18.713 15.6732C18.664 15.597 18.5376 15.597 18.4884 15.6732L13.5398 23.3355L1.94974 5.11497C1.91791 5.06483 1.85694 5.04157 1.79958 5.05841C1.74249 5.07499 1.70319 5.12727 1.70319 5.18677V15.9635C1.70319 15.9889 1.71041 16.0136 1.72404 16.0351L10.0513 29.1522C10.0759 29.1908 10.1184 29.2142 10.1643 29.2142H16.8588C16.902 29.2142 16.9427 29.1933 16.9678 29.1581L18.6005 26.8621L20.2331 29.1581C20.2583 29.1934 20.2989 29.2142 20.3421 29.2142H27.0367C27.0825 29.2142 27.1251 29.1908 27.1497 29.1522L35.4769 16.0351C35.4907 16.0136 35.4977 15.9889 35.4977 15.9635V5.18677C35.4977 5.12727 35.4584 5.07499 35.4013 5.05841H35.4019Z" fill="white"/>
<path d="M33.3389 23.7881L31.6578 26.4342L29.9766 29.0805H33.3389H36.7012L35.0201 26.4342L33.3389 23.7881Z" fill="#568EFF"/>
<path d="M93.5054 5.14727C93.3729 5.00942 93.213 4.94043 93.0258 4.94043H83.6509C83.6021 4.94043 83.5572 4.9669 83.5338 5.00982C83.5102 5.05247 83.512 5.10475 83.538 5.14593L85.0596 7.54085L77.7084 32.108C77.5538 32.5936 77.719 32.8361 78.204 32.8361C78.204 32.8361 84.0785 29.9643 85.792 29.05C86.0773 28.8977 86.2921 28.6407 86.3902 28.3325L93.6042 5.66872C93.6709 5.45934 93.6378 5.28552 93.5057 5.1474L93.5054 5.14727Z" fill="white"/>
<path d="M122.15 5.10596C122.064 4.99592 121.872 4.94056 121.575 4.94056H115.508C115.287 4.94056 115.089 5.00956 114.913 5.1474C114.737 5.28552 114.615 5.45934 114.549 5.66872L111.256 16.0132L107.691 5.45359C107.637 5.27723 107.546 5.14741 107.418 5.06464C107.29 4.98188 107.154 4.94043 107.011 4.94043H96.692C96.6432 4.94043 96.5983 4.9669 96.5749 5.00982C96.5513 5.05248 96.5531 5.10475 96.5791 5.14593L98.3205 7.88674L91.6561 28.8234C91.5964 29.0111 91.6025 29.1738 91.6744 29.3117C91.7461 29.4496 91.9086 29.5185 92.1622 29.5185H98.2289C98.758 29.5185 99.0997 29.276 99.2543 28.7903L102.779 17.7178L106.949 28.9725C107.021 29.3367 107.216 29.5186 107.536 29.5186H113.9C114.341 29.5186 114.623 29.3257 114.746 28.9394L122.153 5.66885C122.237 5.40412 122.236 5.21666 122.15 5.10609L122.15 5.10596Z" fill="white"/>
<path d="M81.8305 4.94043H75.4992C74.9592 4.94043 74.5181 5.18324 74.1762 5.66859L65.4472 19.1742L65.5929 13.3151L70.3908 5.66859C70.4913 5.52539 70.5559 5.40947 70.5841 5.32109C70.6649 5.06745 70.5344 4.94043 70.1929 4.94043H61.8614C61.8126 4.94043 61.7676 4.9669 61.7442 5.00982C61.7207 5.05248 61.7224 5.10475 61.7485 5.14593L62.3127 6.034L54.1628 19.2074L54.0255 5.66872C53.9925 5.18337 53.7062 4.94056 53.1664 4.94056H45.5633C45.5145 4.94056 45.4696 4.96704 45.4462 5.00995C45.4227 5.05261 45.4244 5.10489 45.4505 5.14607L46.9774 7.54954L46.9963 28.7905C46.9735 29.0001 47.0442 29.1933 47.2086 29.3698C47.2762 29.469 47.4091 29.5186 47.6074 29.5186H54.1536C54.3188 29.5186 54.467 29.469 54.5978 29.3698C54.8526 29.2265 55.0574 29.0333 55.212 28.7905L58.1139 24.5036L58.3281 28.6084C58.3225 28.7299 58.33 28.8706 58.3508 29.0303C58.3714 29.1903 58.4153 29.3035 58.4825 29.3697C58.55 29.4689 58.6831 29.5185 58.8814 29.5185H65.4275C65.5928 29.5185 65.7409 29.4689 65.8717 29.3697C66.1265 29.2264 66.3314 29.0332 66.4858 28.7903L82.0284 5.66872C82.1289 5.52552 82.1935 5.4096 82.2217 5.32122C82.3025 5.06758 82.172 4.94056 81.8305 4.94056V4.94043Z" fill="white"/>
<path d="M147.5 10.8362H187.5L194.5 16.3362V28.8362H154.5L147.5 21.8362V10.8362Z" fill="#568EFF"/>
<path d="M158.956 24.8362L155.02 14.5322H157.276L160.124 22.4202L162.988 14.5322H165.244L161.324 24.8362H158.956Z" fill="#211E36"/>
<path d="M171.112 24.9962C169.693 24.9962 168.568 24.6549 167.736 23.9722C166.915 23.2789 166.504 22.2762 166.504 20.9642V14.5322H168.664V20.8042C168.664 21.5936 168.877 22.1856 169.304 22.5802C169.731 22.9642 170.333 23.1562 171.112 23.1562C171.891 23.1562 172.488 22.9642 172.904 22.5802C173.331 22.1856 173.544 21.5936 173.544 20.8042V14.5322H175.704V20.9642C175.704 22.2762 175.293 23.2789 174.472 23.9722C173.651 24.6549 172.531 24.9962 171.112 24.9962Z" fill="#211E36"/>
<path d="M177.593 24.8362V14.5322H184.985V16.2122H179.753V18.8522H184.393V20.5162H179.753V23.1722H184.985V24.8362H177.593Z" fill="#211E36"/>
</svg>
