<svg width="229" height="40" viewBox="0 0 229 40" fill="none" xmlns="http://www.w3.org/2000/svg">
<path d="M96.1305 29.538C95.591 29.2421 95.1003 28.8925 94.6587 28.4891C94.2169 28.0857 93.8518 27.6644 93.5638 27.225C93.4491 27.0636 93.3702 26.9338 93.3272 26.8351C93.2841 26.7365 93.2763 26.6425 93.3038 26.5526C93.3257 26.4809 93.3728 26.4048 93.4452 26.3241C93.5172 26.2435 97.6581 22.6978 97.7453 22.6529C97.8323 22.6081 97.9105 22.5856 97.9796 22.5856C98.0573 22.5856 98.134 22.6105 98.2095 22.6596C98.285 22.709 99.0575 23.4059 99.2854 23.6481C99.8259 24.2219 100.311 24.6119 100.74 24.8181C101 24.9524 101.286 25.0197 101.597 25.0197C102.435 25.0197 102.96 24.6747 103.171 23.9843C103.254 23.7153 103.19 23.4598 102.979 23.2178C102.873 23.1001 102.658 22.9611 102.43 22.8331C102.041 22.614 101.629 22.4423 101.208 22.2992C99.3299 21.661 98.1206 20.7704 97.5796 19.6273C97.3183 19.0716 97.1967 18.4619 97.2149 17.7984C97.2327 17.1351 97.3643 16.4045 97.6093 15.6065C97.8707 14.7549 98.2805 13.9749 98.8391 13.2666C99.3974 12.5584 100.075 11.9487 100.871 11.4377C101.658 10.9267 102.533 10.5368 103.496 10.2677C104.459 9.99886 105.472 9.86426 106.534 9.86426C107.933 9.86426 109.082 10.0437 109.983 10.4022C111.028 10.8237 111.866 11.523 112.499 12.5001C112.55 12.6705 112.551 12.8363 112.502 12.9976C112.422 13.2578 112.181 13.5624 111.781 13.9121L108.821 16.5075C108.628 16.6868 108.436 16.7765 108.246 16.7765C107.996 16.7765 107.758 16.6375 107.532 16.3595C107.257 16.019 106.897 15.7275 106.454 15.4855C106.016 15.2524 105.611 15.1358 105.24 15.1358C104.869 15.1358 104.546 15.203 104.271 15.3374C103.925 15.5078 103.697 15.7724 103.588 16.1309C103.524 16.3372 103.535 16.5141 103.619 16.662C103.703 16.8099 103.845 16.9376 104.045 17.0452C104.234 17.1618 105.347 17.5293 105.347 17.5293C106.342 17.8879 107.148 18.2241 107.764 18.5379C108.38 18.8518 108.876 19.2237 109.254 19.6539C109.681 20.1472 109.937 20.7412 110.022 21.4357C110.106 22.1305 109.996 22.9755 109.691 23.9706C109.374 25.0016 108.893 25.9272 108.249 26.7475C107.604 27.5677 106.831 28.265 105.929 28.8385C105.059 29.3945 104.094 29.8182 103.033 30.1093C101.973 30.4006 100.881 30.5463 99.7583 30.5463C98.5408 30.5463 97.3315 30.2101 96.1304 29.5378L96.1305 29.538Z" fill="white"/>
<path d="M2.63445 25.6484L3.95157 27.7984L5.26881 29.9485H2.63445H0L1.31723 27.7984L2.63445 25.6484Z" fill="#568EFF"/>
<path d="M14.1817 7L7.57178 17.8345L10.2158 22.2567L14.1817 15.8445L18.1476 22.2567L20.7916 17.8345L14.1817 7Z" fill="#568EFF"/>
<path d="M27.3459 10.4304C27.3011 10.4169 27.2532 10.4358 27.2282 10.4764L18.1473 25.2806L14.2701 19.055C14.2316 18.993 14.1326 18.993 14.0941 19.055L10.2168 25.2806L1.13592 10.4764C1.11099 10.4357 1.06322 10.4168 1.01827 10.4304C0.973542 10.4439 0.942749 10.4864 0.942749 10.5347V19.2908C0.942749 19.3114 0.948407 19.3315 0.959092 19.349L7.48353 30.0066C7.5028 30.038 7.53611 30.0571 7.57205 30.0571H12.8173C12.8511 30.0571 12.883 30.04 12.9027 30.0114L14.1819 28.146L15.461 30.0114C15.4807 30.0401 15.5126 30.0571 15.5464 30.0571H20.7917C20.8276 30.0571 20.8609 30.038 20.8802 30.0066L27.4046 19.349C27.4154 19.3315 27.421 19.3114 27.421 19.2908V10.5347C27.421 10.4864 27.3902 10.4439 27.3454 10.4304H27.3459Z" fill="white"/>
<path d="M25.7293 25.6484L24.4122 27.7984L23.095 29.9485H25.7293H28.3638L27.0466 27.7984L25.7293 25.6484Z" fill="#568EFF"/>
<path d="M72.8702 10.5028C72.7664 10.3908 72.6411 10.3347 72.4944 10.3347H65.1491C65.1109 10.3347 65.0757 10.3562 65.0573 10.3911C65.0389 10.4258 65.0403 10.4682 65.0607 10.5017L66.2528 12.4476L60.4931 32.4083C60.372 32.8029 60.5014 33 60.8815 33C60.8815 33 65.4841 30.6666 66.8267 29.9237C67.0502 29.8 67.2185 29.5912 67.2954 29.3408L72.9476 10.9264C72.9999 10.7563 72.9739 10.6151 72.8704 10.5029L72.8702 10.5028Z" fill="white"/>
<path d="M95.3135 10.4692C95.2459 10.3798 95.0959 10.3348 94.8627 10.3348H90.1094C89.9365 10.3348 89.7812 10.3909 89.6432 10.5029C89.5051 10.6151 89.41 10.7563 89.3577 10.9264L86.7779 19.3313L83.9846 10.7517C83.9421 10.6084 83.8709 10.5029 83.7708 10.4356C83.6704 10.3684 83.5641 10.3347 83.452 10.3347H75.3669C75.3286 10.3347 75.2934 10.3562 75.2751 10.3911C75.2567 10.4258 75.258 10.4682 75.2785 10.5017L76.6428 12.7286L71.4213 29.7396C71.3744 29.8921 71.3792 30.0243 71.4356 30.1363C71.4918 30.2485 71.6191 30.3044 71.8178 30.3044H76.5711C76.9856 30.3044 77.2534 30.1073 77.3745 29.7128L80.1359 20.7163L83.4034 29.8607C83.4593 30.1567 83.6124 30.3045 83.863 30.3045H88.8496C89.1947 30.3045 89.4158 30.1477 89.512 29.8339L95.3156 10.9266C95.3817 10.7115 95.3809 10.5592 95.3134 10.4693L95.3135 10.4692Z" fill="white"/>
<path d="M63.7229 10.3347H58.7623C58.3391 10.3347 57.9935 10.532 57.7257 10.9263L50.8864 21.8997L51.0006 17.1392L54.7598 10.9263C54.8385 10.81 54.8891 10.7158 54.9113 10.644C54.9745 10.4379 54.8723 10.3347 54.6047 10.3347H48.0769C48.0387 10.3347 48.0035 10.3562 47.9852 10.3911C47.9667 10.4258 47.9681 10.4682 47.9885 10.5017L48.4306 11.2232L42.0451 21.9266L41.9375 10.9264C41.9116 10.5321 41.6873 10.3348 41.2644 10.3348H35.3074C35.2691 10.3348 35.2339 10.3563 35.2156 10.3912C35.1972 10.4259 35.1985 10.4683 35.2189 10.5018L36.4153 12.4546L36.4301 29.7129C36.4122 29.8832 36.4676 30.0402 36.5964 30.1836C36.6494 30.2642 36.7535 30.3045 36.9089 30.3045H42.0379C42.1673 30.3045 42.2834 30.2642 42.3859 30.1836C42.5855 30.0671 42.746 29.9102 42.8671 29.7129L45.1408 26.2298L45.3086 29.5649C45.3042 29.6637 45.3101 29.778 45.3264 29.9078C45.3425 30.0377 45.3769 30.1297 45.4296 30.1835C45.4825 30.2641 45.5867 30.3044 45.7421 30.3044H50.871C51.0005 30.3044 51.1166 30.2641 51.219 30.1835C51.4187 30.067 51.5792 29.9101 51.7002 29.7128L63.8779 10.9264C63.9567 10.8101 64.0073 10.7159 64.0294 10.6441C64.0927 10.438 63.9904 10.3348 63.7229 10.3348V10.3347Z" fill="white"/>
<path d="M115.175 15.1252H146.515L152 19.594V29.7502H120.66L115.175 24.0627V15.1252Z" fill="#568EFF"/>
<path d="M124.151 26.5002L121.067 18.1282H122.835L125.066 24.5372L127.31 18.1282H129.078L126.006 26.5002H124.151Z" fill="#211E36"/>
<path d="M133.675 26.6302C132.564 26.6302 131.682 26.3528 131.03 25.7982C130.387 25.2348 130.065 24.4202 130.065 23.3542V18.1282H131.757V23.2242C131.757 23.8655 131.924 24.3465 132.259 24.6672C132.593 24.9792 133.065 25.1352 133.675 25.1352C134.285 25.1352 134.753 24.9792 135.079 24.6672C135.414 24.3465 135.581 23.8655 135.581 23.2242V18.1282H137.273V23.3542C137.273 24.4202 136.951 25.2348 136.308 25.7982C135.664 26.3528 134.787 26.6302 133.675 26.6302Z" fill="#211E36"/>
<path d="M138.753 26.5002V18.1282H144.545V19.4932H140.446V21.6382H144.081V22.9902H140.446V25.1482H144.545V26.5002H138.753Z" fill="#211E36"/>
<line x1="172.5" y1="34" x2="172.5" y2="6" stroke="white" stroke-opacity="0.41"/>
<path d="M211 0L202.914 12.7811L206.148 17.9979L211 10.4336L215.851 17.9979L219.086 12.7811L211 0Z" fill="#568EFF"/>
<path d="M227.104 4.04722C227.049 4.03112 226.991 4.05347 226.96 4.10146L215.851 21.5656L211.108 14.2214C211.061 14.1483 210.94 14.1483 210.893 14.2214L206.15 21.5656L195.041 4.10146C195.01 4.05331 194.952 4.03104 194.897 4.04722C194.842 4.06308 194.804 4.11323 194.804 4.17027V14.4996C194.804 14.5239 194.811 14.5477 194.824 14.5683L202.806 27.1408C202.83 27.1778 202.87 27.2002 202.914 27.2002H209.331C209.372 27.2002 209.411 27.1801 209.435 27.1463L211 24.9456L212.565 27.1463C212.589 27.1801 212.628 27.2002 212.67 27.2002H219.086C219.13 27.2002 219.171 27.1778 219.195 27.1408L227.176 14.5683C227.189 14.5477 227.196 14.5239 227.196 14.4996V4.17027C227.196 4.11323 227.159 4.06316 227.104 4.04722H227.104Z" fill="white"/>
<path d="M196.873 21.9993L198.485 24.5356L200.096 27.072H196.873H193.651L195.262 24.5356L196.873 21.9993Z" fill="#568EFF"/>
<path d="M225.127 21.9993L223.515 24.5356L221.904 27.072H225.127H228.35L226.738 24.5356L225.127 21.9993Z" fill="#568EFF"/>
<path d="M222.05 31.4502H203.241L199.95 34.0364V39.914H218.758L222.05 36.6225V31.4502Z" fill="#E8E8E8"/>
<path d="M204.68 38.0331V33.188H206.952C207.333 33.188 207.644 33.2607 207.885 33.4062C208.13 33.5516 208.313 33.7497 208.434 34.0005C208.554 34.2513 208.614 34.5372 208.614 34.8582C208.614 35.1842 208.544 35.4726 208.404 35.7234C208.268 35.9742 208.073 36.1698 207.817 36.3102C207.566 36.4456 207.268 36.5133 206.922 36.5133H205.695V38.0331H204.68ZM205.695 35.7083H206.711C207.002 35.7083 207.22 35.6331 207.365 35.4826C207.516 35.3271 207.591 35.119 207.591 34.8582C207.591 34.5773 207.521 34.3641 207.381 34.2187C207.24 34.0682 207.029 33.993 206.749 33.993H205.695V35.7083Z" fill="#211E36"/>
<path d="M210.609 38.0331L208.758 33.188H209.819L211.158 36.897L212.505 33.188H213.566L211.722 38.0331H210.609Z" fill="#211E36"/>
<path d="M214.151 38.0331V33.188H216.424C216.805 33.188 217.116 33.2607 217.356 33.4062C217.602 33.5516 217.785 33.7497 217.906 34.0005C218.026 34.2513 218.086 34.5372 218.086 34.8582C218.086 35.1842 218.016 35.4726 217.876 35.7234C217.74 35.9742 217.545 36.1698 217.289 36.3102C217.038 36.4456 216.74 36.5133 216.393 36.5133H215.167V38.0331H214.151ZM215.167 35.7083H216.183C216.474 35.7083 216.692 35.6331 216.837 35.4826C216.988 35.3271 217.063 35.119 217.063 34.8582C217.063 34.5773 216.993 34.3641 216.852 34.2187C216.712 34.0682 216.501 33.993 216.22 33.993H215.167V35.7083Z" fill="#211E36"/>
</svg>
