<svg width="134" height="72" viewBox="0 0 134 72" fill="none" xmlns="http://www.w3.org/2000/svg">
<rect x="0.620972" width="133" height="71.6722" rx="5.91111" fill="black"/>
<rect x="7.62097" y="17" width="118" height="34" rx="2.95556" stroke="#DDE6FF" stroke-width="0.369444"/>
<path d="M13.9077 11.1997H14.7194C14.6935 11.5092 14.6069 11.7852 14.4597 12.0277C14.3125 12.2679 14.1057 12.4574 13.8395 12.5959C13.5732 12.7344 13.2496 12.8037 12.8686 12.8037C12.5764 12.8037 12.3134 12.7518 12.0796 12.6479C11.8458 12.5418 11.6455 12.3924 11.4789 12.1998C11.3122 12.0049 11.1845 11.7701 11.0957 11.4951C11.0091 11.2202 10.9658 10.9128 10.9658 10.573V10.1801C10.9658 9.84022 11.0102 9.53283 11.099 9.25791C11.1899 8.98299 11.3198 8.74812 11.4886 8.5533C11.6574 8.35631 11.8598 8.20586 12.0958 8.10195C12.3339 7.99805 12.6013 7.94609 12.8978 7.94609C13.2745 7.94609 13.5927 8.01536 13.8525 8.15391C14.1122 8.29245 14.3136 8.48403 14.4564 8.72864C14.6015 8.97325 14.6902 9.25358 14.7227 9.56963H13.9109C13.8893 9.36615 13.8416 9.19189 13.768 9.04685C13.6966 8.90181 13.5905 8.79141 13.4498 8.71565C13.3091 8.63772 13.1251 8.59876 12.8978 8.59876C12.7117 8.59876 12.5493 8.63339 12.4108 8.70266C12.2722 8.77193 12.1564 8.87367 12.0633 9.00789C11.9702 9.1421 11.8999 9.3077 11.8523 9.50469C11.8068 9.69951 11.7841 9.92248 11.7841 10.1736V10.573C11.7841 10.8111 11.8046 11.0276 11.8458 11.2224C11.8891 11.415 11.954 11.5806 12.0406 11.7192C12.1294 11.8577 12.2419 11.9649 12.3783 12.0406C12.5147 12.1164 12.6781 12.1543 12.8686 12.1543C13.1002 12.1543 13.2875 12.1175 13.4303 12.0439C13.5754 11.9703 13.6847 11.8631 13.7583 11.7224C13.8341 11.5796 13.8839 11.4053 13.9077 11.1997ZM18.3211 12.0926V12.7388H15.9475V12.0926H18.3211ZM16.1748 8.01104V12.7388H15.3598V8.01104H16.1748ZM20.7571 8.64097L19.3446 12.7388H18.4906L20.27 8.01104H20.8155L20.7571 8.64097ZM21.939 12.7388L20.5233 8.64097L20.4616 8.01104H21.0103L22.7962 12.7388H21.939ZM21.8708 10.9854V11.6315H19.2991V10.9854H21.8708ZM25.7127 11.5211C25.7127 11.4237 25.6976 11.3371 25.6673 11.2614C25.6391 11.1856 25.5883 11.1163 25.5147 11.0535C25.4411 10.9908 25.3372 10.9302 25.203 10.8717C25.0709 10.8111 24.9021 10.7494 24.6964 10.6866C24.4713 10.6174 24.2635 10.5405 24.073 10.4561C23.8846 10.3695 23.7201 10.2699 23.5794 10.1573C23.4387 10.0426 23.3294 9.91165 23.2515 9.76445C23.1735 9.61509 23.1346 9.44299 23.1346 9.24817C23.1346 9.05551 23.1746 8.88017 23.2547 8.72214C23.337 8.56412 23.4528 8.42774 23.6021 8.31301C23.7537 8.19612 23.9323 8.10628 24.1379 8.04351C24.3436 7.97856 24.5709 7.94609 24.8198 7.94609C25.1705 7.94609 25.4725 8.01104 25.7257 8.14092C25.9812 8.2708 26.1771 8.44506 26.3135 8.6637C26.452 8.88233 26.5213 9.1237 26.5213 9.38779H25.7127C25.7127 9.23193 25.6792 9.09447 25.6121 8.97542C25.5471 8.85419 25.4476 8.75894 25.3134 8.68967C25.1813 8.6204 25.0135 8.58577 24.8101 8.58577C24.6174 8.58577 24.4572 8.61499 24.3295 8.67344C24.2018 8.73188 24.1065 8.8109 24.0438 8.91047C23.981 9.01005 23.9496 9.12262 23.9496 9.24817C23.9496 9.33692 23.9702 9.4181 24.0113 9.4917C24.0524 9.56313 24.1152 9.63024 24.1996 9.69302C24.284 9.75363 24.3901 9.81099 24.5178 9.86511C24.6455 9.91923 24.796 9.97118 24.9692 10.021C25.2311 10.0989 25.4595 10.1855 25.6543 10.2807C25.8491 10.3738 26.0115 10.4799 26.1414 10.599C26.2712 10.718 26.3687 10.8533 26.4336 11.0048C26.4985 11.1542 26.531 11.3241 26.531 11.5146C26.531 11.7138 26.491 11.8934 26.4109 12.0536C26.3308 12.2117 26.216 12.347 26.0667 12.4595C25.9195 12.5699 25.742 12.6554 25.5342 12.716C25.3285 12.7745 25.099 12.8037 24.8458 12.8037C24.6185 12.8037 24.3944 12.7734 24.1736 12.7128C23.955 12.6522 23.7558 12.5602 23.5762 12.4368C23.3965 12.3112 23.2536 12.1554 23.1476 11.9692C23.0415 11.7809 22.9885 11.5612 22.9885 11.3101H23.8035C23.8035 11.4638 23.8294 11.5947 23.8814 11.703C23.9355 11.8112 24.0102 11.8999 24.1054 11.9692C24.2007 12.0363 24.3111 12.0861 24.4366 12.1186C24.5644 12.151 24.7007 12.1673 24.8458 12.1673C25.0363 12.1673 25.1954 12.1402 25.3231 12.0861C25.453 12.032 25.5504 11.9562 25.6153 11.8588C25.6803 11.7614 25.7127 11.6488 25.7127 11.5211ZM29.6391 11.5211C29.6391 11.4237 29.624 11.3371 29.5937 11.2614C29.5655 11.1856 29.5146 11.1163 29.441 11.0535C29.3674 10.9908 29.2635 10.9302 29.1293 10.8717C28.9973 10.8111 28.8284 10.7494 28.6228 10.6866C28.3976 10.6174 28.1898 10.5405 27.9993 10.4561C27.811 10.3695 27.6465 10.2699 27.5058 10.1573C27.3651 10.0426 27.2558 9.91165 27.1778 9.76445C27.0999 9.61509 27.0609 9.44299 27.0609 9.24817C27.0609 9.05551 27.101 8.88017 27.1811 8.72214C27.2633 8.56412 27.3792 8.42774 27.5285 8.31301C27.68 8.19612 27.8586 8.10628 28.0643 8.04351C28.2699 7.97856 28.4972 7.94609 28.7462 7.94609C29.0969 7.94609 29.3988 8.01104 29.6521 8.14092C29.9075 8.2708 30.1034 8.44506 30.2398 8.6637C30.3784 8.88233 30.4476 9.1237 30.4476 9.38779H29.6391C29.6391 9.23193 29.6056 9.09447 29.5385 8.97542C29.4735 8.85419 29.3739 8.75894 29.2397 8.68967C29.1077 8.6204 28.9399 8.58577 28.7364 8.58577C28.5438 8.58577 28.3836 8.61499 28.2559 8.67344C28.1281 8.73188 28.0329 8.8109 27.9701 8.91047C27.9073 9.01005 27.876 9.12262 27.876 9.24817C27.876 9.33692 27.8965 9.4181 27.9376 9.4917C27.9788 9.56313 28.0416 9.63024 28.126 9.69302C28.2104 9.75363 28.3165 9.81099 28.4442 9.86511C28.5719 9.91923 28.7224 9.97118 28.8955 10.021C29.1575 10.0989 29.3858 10.1855 29.5807 10.2807C29.7755 10.3738 29.9378 10.4799 30.0677 10.599C30.1976 10.718 30.295 10.8533 30.36 11.0048C30.4249 11.1542 30.4574 11.3241 30.4574 11.5146C30.4574 11.7138 30.4173 11.8934 30.3372 12.0536C30.2571 12.2117 30.1424 12.347 29.993 12.4595C29.8458 12.5699 29.6683 12.6554 29.4605 12.716C29.2549 12.7745 29.0254 12.8037 28.7721 12.8037C28.5448 12.8037 28.3208 12.7734 28.1 12.7128C27.8814 12.6522 27.6822 12.5602 27.5025 12.4368C27.3229 12.3112 27.18 12.1554 27.0739 11.9692C26.9679 11.7809 26.9148 11.5612 26.9148 11.3101H27.7298C27.7298 11.4638 27.7558 11.5947 27.8078 11.703C27.8619 11.8112 27.9366 11.8999 28.0318 11.9692C28.1271 12.0363 28.2375 12.0861 28.363 12.1186C28.4907 12.151 28.6271 12.1673 28.7721 12.1673C28.9626 12.1673 29.1217 12.1402 29.2495 12.0861C29.3793 12.032 29.4768 11.9562 29.5417 11.8588C29.6066 11.7614 29.6391 11.6488 29.6391 11.5211ZM31.9484 8.01104V12.7388H31.1334V8.01104H31.9484ZM33.6765 8.01104V12.7388H32.8615V8.01104H33.6765ZM35.6053 10.0794V10.7256H33.4687V10.0794H35.6053ZM35.8748 8.01104V8.66045H33.4687V8.01104H35.8748ZM37.2944 8.01104V12.7388H36.4794V8.01104H37.2944ZM41 11.1997H41.8118C41.7858 11.5092 41.6992 11.7852 41.552 12.0277C41.4048 12.2679 41.1981 12.4574 40.9318 12.5959C40.6656 12.7344 40.3419 12.8037 39.9609 12.8037C39.6687 12.8037 39.4057 12.7518 39.1719 12.6479C38.9381 12.5418 38.7379 12.3924 38.5712 12.1998C38.4045 12.0049 38.2768 11.7701 38.188 11.4951C38.1014 11.2202 38.0582 10.9128 38.0582 10.573V10.1801C38.0582 9.84022 38.1025 9.53283 38.1913 9.25791C38.2822 8.98299 38.4121 8.74812 38.5809 8.5533C38.7498 8.35631 38.9522 8.20586 39.1881 8.10195C39.4263 7.99805 39.6936 7.94609 39.9902 7.94609C40.3668 7.94609 40.685 8.01536 40.9448 8.15391C41.2046 8.29245 41.4059 8.48403 41.5488 8.72864C41.6938 8.97325 41.7825 9.25358 41.815 9.56963H41.0032C40.9816 9.36615 40.934 9.19189 40.8604 9.04685C40.7889 8.90181 40.6829 8.79141 40.5422 8.71565C40.4015 8.63772 40.2175 8.59876 39.9902 8.59876C39.804 8.59876 39.6416 8.63339 39.5031 8.70266C39.3646 8.77193 39.2487 8.87367 39.1557 9.00789C39.0626 9.1421 38.9922 9.3077 38.9446 9.50469C38.8991 9.69951 38.8764 9.92248 38.8764 10.1736V10.573C38.8764 10.8111 38.897 11.0276 38.9381 11.2224C38.9814 11.415 39.0463 11.5806 39.1329 11.7192C39.2217 11.8577 39.3343 11.9649 39.4706 12.0406C39.607 12.1164 39.7704 12.1543 39.9609 12.1543C40.1926 12.1543 40.3798 12.1175 40.5227 12.0439C40.6677 11.9703 40.777 11.8631 40.8506 11.7224C40.9264 11.5796 40.9762 11.4053 41 11.1997ZM44.2932 8.64097L42.8807 12.7388H42.0267L43.8061 8.01104H44.3516L44.2932 8.64097ZM45.4751 12.7388L44.0594 8.64097L43.9977 8.01104H44.5465L46.3323 12.7388H45.4751ZM45.4069 10.9854V11.6315H42.8353V10.9854H45.4069ZM49.5021 11.1997H50.3139C50.2879 11.5092 50.2013 11.7852 50.0541 12.0277C49.9069 12.2679 49.7002 12.4574 49.434 12.5959C49.1677 12.7344 48.8441 12.8037 48.4631 12.8037C48.1708 12.8037 47.9078 12.7518 47.674 12.6479C47.4403 12.5418 47.24 12.3924 47.0733 12.1998C46.9067 12.0049 46.7789 11.7701 46.6902 11.4951C46.6036 11.2202 46.5603 10.9128 46.5603 10.573V10.1801C46.5603 9.84022 46.6047 9.53283 46.6934 9.25791C46.7843 8.98299 46.9142 8.74812 47.0831 8.5533C47.2519 8.35631 47.4543 8.20586 47.6903 8.10195C47.9284 7.99805 48.1957 7.94609 48.4923 7.94609C48.869 7.94609 49.1872 8.01536 49.4469 8.15391C49.7067 8.29245 49.908 8.48403 50.0509 8.72864C50.1959 8.97325 50.2847 9.25358 50.3172 9.56963H49.5054C49.4837 9.36615 49.4361 9.19189 49.3625 9.04685C49.2911 8.90181 49.185 8.79141 49.0443 8.71565C48.9036 8.63772 48.7196 8.59876 48.4923 8.59876C48.3061 8.59876 48.1438 8.63339 48.0052 8.70266C47.8667 8.77193 47.7509 8.87367 47.6578 9.00789C47.5647 9.1421 47.4944 9.3077 47.4468 9.50469C47.4013 9.69951 47.3786 9.92248 47.3786 10.1736V10.573C47.3786 10.8111 47.3991 11.0276 47.4403 11.2224C47.4836 11.415 47.5485 11.5806 47.6351 11.7192C47.7238 11.8577 47.8364 11.9649 47.9728 12.0406C48.1092 12.1164 48.2726 12.1543 48.4631 12.1543C48.6947 12.1543 48.882 12.1175 49.0248 12.0439C49.1699 11.9703 49.2792 11.8631 49.3528 11.7224C49.4285 11.5796 49.4783 11.4053 49.5021 11.1997ZM48.1708 12.7453H48.7521L48.7131 12.9271C48.8365 12.9487 48.9491 13.0007 49.0508 13.083C49.1547 13.1674 49.2067 13.3027 49.2067 13.4888C49.2067 13.5992 49.1839 13.6988 49.1385 13.7876C49.093 13.8763 49.0248 13.9521 48.9339 14.0149C48.8452 14.0798 48.7337 14.1296 48.5995 14.1642C48.4674 14.1989 48.3137 14.2162 48.1384 14.2162L48.1156 13.7746C48.2001 13.7746 48.2758 13.7638 48.3429 13.7421C48.41 13.7226 48.4631 13.6912 48.502 13.6479C48.5432 13.6047 48.5637 13.5484 48.5637 13.4791C48.5637 13.412 48.5464 13.36 48.5118 13.3232C48.4772 13.2864 48.423 13.2583 48.3494 13.2388C48.278 13.2193 48.1849 13.2053 48.0702 13.1966L48.1708 12.7453ZM52.7953 8.64097L51.3829 12.7388H50.5289L52.3083 8.01104H52.8538L52.7953 8.64097ZM53.9773 12.7388L52.5615 8.64097L52.4999 8.01104H53.0486L54.8345 12.7388H53.9773ZM53.9091 10.9854V11.6315H51.3374V10.9854H53.9091ZM53.3993 6.78364L53.8766 6.81936C53.8766 6.97738 53.8452 7.11917 53.7824 7.24473C53.7197 7.36812 53.6342 7.46553 53.5259 7.53696C53.4177 7.6084 53.2954 7.64412 53.159 7.64412C53.0529 7.64412 52.9631 7.62896 52.8895 7.59866C52.8159 7.56835 52.7488 7.53372 52.6882 7.49475C52.6276 7.45579 52.5648 7.42223 52.4999 7.39409C52.4371 7.36379 52.3624 7.34863 52.2758 7.34863C52.1935 7.34863 52.1232 7.37894 52.0647 7.43955C52.0085 7.50016 51.9803 7.58134 51.9803 7.68308L51.4998 7.6571C51.4998 7.50125 51.5311 7.36054 51.5939 7.23499C51.6567 7.10943 51.7422 7.00986 51.8504 6.93626C51.9587 6.86265 52.081 6.82585 52.2174 6.82585C52.3061 6.82585 52.3862 6.84101 52.4576 6.87131C52.5312 6.89946 52.6005 6.93301 52.6655 6.97197C52.7326 7.01094 52.8007 7.04557 52.87 7.07588C52.9393 7.10619 53.0161 7.12134 53.1006 7.12134C53.1828 7.12134 53.2532 7.08995 53.3116 7.02717C53.3701 6.9644 53.3993 6.88322 53.3993 6.78364ZM58.9817 10.245V10.5048C58.9817 10.862 58.9351 11.1823 58.842 11.4659C58.749 11.7495 58.6158 11.9909 58.4427 12.19C58.2716 12.3892 58.066 12.5418 57.8257 12.6479C57.5854 12.7518 57.3192 12.8037 57.0269 12.8037C56.7369 12.8037 56.4717 12.7518 56.2314 12.6479C55.9933 12.5418 55.7865 12.3892 55.6112 12.19C55.4359 11.9909 55.2995 11.7495 55.2021 11.4659C55.1068 11.1823 55.0592 10.862 55.0592 10.5048V10.245C55.0592 9.88784 55.1068 9.56855 55.2021 9.28713C55.2973 9.00356 55.4315 8.76219 55.6047 8.56304C55.7801 8.36172 55.9868 8.20911 56.2249 8.1052C56.4652 7.99913 56.7304 7.94609 57.0204 7.94609C57.3127 7.94609 57.5789 7.99913 57.8192 8.1052C58.0595 8.20911 58.2662 8.36172 58.4394 8.56304C58.6126 8.76219 58.7457 9.00356 58.8388 9.28713C58.934 9.56855 58.9817 9.88784 58.9817 10.245ZM58.1667 10.5048V10.2385C58.1667 9.97443 58.1407 9.74172 58.0887 9.54041C58.0389 9.33692 57.9643 9.16699 57.8647 9.03062C57.7673 8.89207 57.6471 8.78817 57.5042 8.7189C57.3614 8.64746 57.2001 8.61174 57.0204 8.61174C56.8408 8.61174 56.6806 8.64746 56.5399 8.7189C56.3992 8.78817 56.279 8.89207 56.1794 9.03062C56.082 9.16699 56.0073 9.33692 55.9554 9.54041C55.9034 9.74172 55.8775 9.97443 55.8775 10.2385V10.5048C55.8775 10.7689 55.9034 11.0027 55.9554 11.2062C56.0073 11.4096 56.0831 11.5817 56.1827 11.7224C56.2844 11.861 56.4057 11.966 56.5464 12.0374C56.6871 12.1067 56.8473 12.1413 57.0269 12.1413C57.2088 12.1413 57.37 12.1067 57.5107 12.0374C57.6514 11.966 57.7705 11.861 57.8679 11.7224C57.9653 11.5817 58.0389 11.4096 58.0887 11.2062C58.1407 11.0027 58.1667 10.7689 58.1667 10.5048ZM62.1229 8.01104V12.7388H61.3079V8.01104H62.1229ZM66.7864 8.01104V12.7388H65.9713L63.851 9.35208V12.7388H63.036V8.01104H63.851L65.9778 11.4042V8.01104H66.7864ZM69.0307 12.7388H68.0209L68.0274 12.0926H69.0307C69.323 12.0926 69.5676 12.0287 69.7646 11.901C69.9637 11.7733 70.1131 11.5904 70.2127 11.3523C70.3144 11.1142 70.3653 10.8306 70.3653 10.5015V10.245C70.3653 9.98958 70.3361 9.76337 70.2776 9.56638C70.2213 9.36939 70.1369 9.20379 70.0243 9.06958C69.9139 8.93537 69.7776 8.83363 69.6152 8.76436C69.455 8.69508 69.2699 8.66045 69.06 8.66045H68.0014V8.01104H69.06C69.3738 8.01104 69.6607 8.06407 69.9204 8.17014C70.1802 8.27405 70.4042 8.4245 70.5926 8.62148C70.7831 8.81847 70.9292 9.05443 71.0309 9.32935C71.1327 9.60426 71.1835 9.91165 71.1835 10.2515V10.5015C71.1835 10.8414 71.1327 11.1488 71.0309 11.4237C70.9292 11.6986 70.7831 11.9346 70.5926 12.1316C70.4021 12.3264 70.1748 12.4768 69.9107 12.5829C69.6488 12.6868 69.3554 12.7388 69.0307 12.7388ZM68.4722 8.01104V12.7388H67.6572V8.01104H68.4722ZM72.772 8.01104V12.7388H71.957V8.01104H72.772ZM76.4776 11.1997H77.2894C77.2634 11.5092 77.1768 11.7852 77.0296 12.0277C76.8824 12.2679 76.6757 12.4574 76.4094 12.5959C76.1431 12.7344 75.8195 12.8037 75.4385 12.8037C75.1463 12.8037 74.8833 12.7518 74.6495 12.6479C74.4157 12.5418 74.2155 12.3924 74.0488 12.1998C73.8821 12.0049 73.7544 11.7701 73.6656 11.4951C73.579 11.2202 73.5357 10.9128 73.5357 10.573V10.1801C73.5357 9.84022 73.5801 9.53283 73.6689 9.25791C73.7598 8.98299 73.8897 8.74812 74.0585 8.5533C74.2274 8.35631 74.4298 8.20586 74.6657 8.10195C74.9038 7.99805 75.1712 7.94609 75.4677 7.94609C75.8444 7.94609 76.1626 8.01536 76.4224 8.15391C76.6822 8.29245 76.8835 8.48403 77.0263 8.72864C77.1714 8.97325 77.2601 9.25358 77.2926 9.56963H76.4808C76.4592 9.36615 76.4116 9.19189 76.338 9.04685C76.2665 8.90181 76.1605 8.79141 76.0198 8.71565C75.879 8.63772 75.695 8.59876 75.4677 8.59876C75.2816 8.59876 75.1192 8.63339 74.9807 8.70266C74.8421 8.77193 74.7263 8.87367 74.6333 9.00789C74.5402 9.1421 74.4698 9.3077 74.4222 9.50469C74.3767 9.69951 74.354 9.92248 74.354 10.1736V10.573C74.354 10.8111 74.3746 11.0276 74.4157 11.2224C74.459 11.415 74.5239 11.5806 74.6105 11.7192C74.6993 11.8577 74.8118 11.9649 74.9482 12.0406C75.0846 12.1164 75.248 12.1543 75.4385 12.1543C75.6701 12.1543 75.8574 12.1175 76.0003 12.0439C76.1453 11.9703 76.2546 11.8631 76.3282 11.7224C76.404 11.5796 76.4538 11.4053 76.4776 11.1997ZM79.7708 8.64097L78.3583 12.7388H77.5043L79.2837 8.01104H79.8292L79.7708 8.64097ZM80.9527 12.7388L79.537 8.64097L79.4753 8.01104H80.024L81.8099 12.7388H80.9527ZM80.8845 10.9854V11.6315H78.3128V10.9854H80.8845ZM83.7751 8.01104V12.7388H82.9666V8.01104H83.7751ZM85.259 8.01104V8.66045H81.4956V8.01104H85.259ZM86.6526 8.01104V12.7388H85.8376V8.01104H86.6526ZM89.186 11.875L90.4296 8.01104H91.3291L89.6341 12.7388H89.0269L89.186 11.875ZM88.0365 8.01104L89.2704 11.875L89.4393 12.7388H88.8288L87.1404 8.01104H88.0365ZM93.3527 8.64097L91.9402 12.7388H91.0862L92.8656 8.01104H93.4111L93.3527 8.64097ZM94.5346 12.7388L93.1189 8.64097L93.0572 8.01104H93.6059L95.3918 12.7388H94.5346ZM94.4664 10.9854V11.6315H91.8947V10.9854H94.4664ZM95.7529 12.3491C95.7529 12.2279 95.794 12.1262 95.8763 12.0439C95.9585 11.9595 96.07 11.9173 96.2107 11.9173C96.3536 11.9173 96.4651 11.9595 96.5452 12.0439C96.6274 12.1262 96.6686 12.2279 96.6686 12.3491C96.6686 12.4703 96.6274 12.5721 96.5452 12.6543C96.4651 12.7366 96.3536 12.7777 96.2107 12.7777C96.07 12.7777 95.9585 12.7366 95.8763 12.6543C95.794 12.5721 95.7529 12.4703 95.7529 12.3491ZM95.7561 9.58262C95.7561 9.46139 95.7973 9.35965 95.8795 9.27739C95.9618 9.19297 96.0733 9.15076 96.214 9.15076C96.3569 9.15076 96.4683 9.19297 96.5484 9.27739C96.6307 9.35965 96.6718 9.46139 96.6718 9.58262C96.6718 9.70384 96.6307 9.80558 96.5484 9.88784C96.4683 9.9701 96.3569 10.0112 96.214 10.0112C96.0733 10.0112 95.9618 9.9701 95.8795 9.88784C95.7973 9.80558 95.7561 9.70384 95.7561 9.58262ZM101.044 7.9948V12.7388H100.261V8.92346L99.102 9.31636V8.67019L100.95 7.9948H101.044ZM104.951 7.98181H105.048V8.62148H104.993C104.714 8.62148 104.472 8.66478 104.269 8.75137C104.067 8.83796 103.902 8.95702 103.772 9.10855C103.642 9.26008 103.545 9.43758 103.48 9.64106C103.417 9.84238 103.385 10.0567 103.385 10.284V11.0276C103.385 11.2159 103.406 11.3826 103.447 11.5276C103.488 11.6705 103.546 11.7906 103.619 11.888C103.695 11.9833 103.782 12.0558 103.879 12.1056C103.976 12.1554 104.081 12.1803 104.194 12.1803C104.311 12.1803 104.417 12.1565 104.512 12.1088C104.607 12.059 104.689 11.9909 104.756 11.9043C104.823 11.8177 104.874 11.7149 104.908 11.5958C104.943 11.4767 104.96 11.3469 104.96 11.2062C104.96 11.0719 104.943 10.9464 104.908 10.8295C104.876 10.7104 104.827 10.6065 104.762 10.5178C104.697 10.4269 104.616 10.3565 104.519 10.3067C104.423 10.2548 104.313 10.2288 104.188 10.2288C104.032 10.2288 103.89 10.2656 103.762 10.3392C103.637 10.4128 103.535 10.5091 103.457 10.6282C103.381 10.7451 103.34 10.8695 103.334 11.0016L103.035 10.9042C103.052 10.7029 103.097 10.5221 103.168 10.3619C103.242 10.2017 103.338 10.0653 103.457 9.95278C103.576 9.84022 103.713 9.75471 103.869 9.69626C104.027 9.63565 104.201 9.60535 104.389 9.60535C104.618 9.60535 104.817 9.64864 104.986 9.73523C105.155 9.82182 105.295 9.9398 105.405 10.0892C105.518 10.2364 105.601 10.4052 105.655 10.5957C105.711 10.784 105.74 10.981 105.74 11.1867C105.74 11.414 105.705 11.6261 105.636 11.8231C105.566 12.0179 105.465 12.1889 105.33 12.3361C105.198 12.4833 105.037 12.5981 104.847 12.6803C104.658 12.7626 104.444 12.8037 104.204 12.8037C103.95 12.8037 103.724 12.755 103.525 12.6576C103.328 12.5602 103.16 12.426 103.022 12.255C102.885 12.0839 102.782 11.887 102.71 11.664C102.639 11.441 102.603 11.2051 102.603 10.9561V10.6314C102.603 10.2721 102.648 9.9333 102.739 9.61509C102.83 9.29471 102.97 9.01222 103.158 8.7676C103.349 8.52299 103.592 8.33141 103.889 8.19287C104.185 8.05216 104.539 7.98181 104.951 7.98181ZM109.787 8.64097L108.374 12.7388H107.52L109.3 8.01104H109.845L109.787 8.64097ZM110.969 12.7388L109.553 8.64097L109.491 8.01104H110.04L111.826 12.7388H110.969ZM110.901 10.9854V11.6315H108.329V10.9854H110.901ZM116.006 8.01104V12.7388H115.191L113.07 9.35208V12.7388H112.255V8.01104H113.07L115.197 11.4042V8.01104H116.006ZM120.646 10.245V10.5048C120.646 10.862 120.6 11.1823 120.507 11.4659C120.414 11.7495 120.28 11.9909 120.107 12.19C119.936 12.3892 119.731 12.5418 119.49 12.6479C119.25 12.7518 118.984 12.8037 118.692 12.8037C118.402 12.8037 118.136 12.7518 117.896 12.6479C117.658 12.5418 117.451 12.3892 117.276 12.19C117.101 11.9909 116.964 11.7495 116.867 11.4659C116.771 11.1823 116.724 10.862 116.724 10.5048V10.245C116.724 9.88784 116.771 9.56855 116.867 9.28713C116.962 9.00356 117.096 8.76219 117.269 8.56304C117.445 8.36172 117.651 8.20911 117.89 8.1052C118.13 7.99913 118.395 7.94609 118.685 7.94609C118.977 7.94609 119.244 7.99913 119.484 8.1052C119.724 8.20911 119.931 8.36172 120.104 8.56304C120.277 8.76219 120.41 9.00356 120.503 9.28713C120.599 9.56855 120.646 9.88784 120.646 10.245ZM119.831 10.5048V10.2385C119.831 9.97443 119.805 9.74172 119.753 9.54041C119.704 9.33692 119.629 9.16699 119.529 9.03062C119.432 8.89207 119.312 8.78817 119.169 8.7189C119.026 8.64746 118.865 8.61174 118.685 8.61174C118.505 8.61174 118.345 8.64746 118.205 8.7189C118.064 8.78817 117.944 8.89207 117.844 9.03062C117.747 9.16699 117.672 9.33692 117.62 9.54041C117.568 9.74172 117.542 9.97443 117.542 10.2385V10.5048C117.542 10.7689 117.568 11.0027 117.62 11.2062C117.672 11.4096 117.748 11.5817 117.847 11.7224C117.949 11.861 118.07 11.966 118.211 12.0374C118.352 12.1067 118.512 12.1413 118.692 12.1413C118.873 12.1413 119.035 12.1067 119.175 12.0374C119.316 11.966 119.435 11.861 119.533 11.7224C119.63 11.5817 119.704 11.4096 119.753 11.2062C119.805 11.0027 119.831 10.7689 119.831 10.5048ZM123.849 11.5211C123.849 11.4237 123.833 11.3371 123.803 11.2614C123.775 11.1856 123.724 11.1163 123.651 11.0535C123.577 10.9908 123.473 10.9302 123.339 10.8717C123.207 10.8111 123.038 10.7494 122.832 10.6866C122.607 10.6174 122.399 10.5405 122.209 10.4561C122.02 10.3695 121.856 10.2699 121.715 10.1573C121.575 10.0426 121.465 9.91165 121.387 9.76445C121.309 9.61509 121.27 9.44299 121.27 9.24817C121.27 9.05551 121.31 8.88017 121.391 8.72214C121.473 8.56412 121.589 8.42774 121.738 8.31301C121.89 8.19612 122.068 8.10628 122.274 8.04351C122.479 7.97856 122.707 7.94609 122.956 7.94609C123.306 7.94609 123.608 8.01104 123.862 8.14092C124.117 8.2708 124.313 8.44506 124.449 8.6637C124.588 8.88233 124.657 9.1237 124.657 9.38779H123.849C123.849 9.23193 123.815 9.09447 123.748 8.97542C123.683 8.85419 123.583 8.75894 123.449 8.68967C123.317 8.6204 123.149 8.58577 122.946 8.58577C122.753 8.58577 122.593 8.61499 122.465 8.67344C122.338 8.73188 122.242 8.8109 122.18 8.91047C122.117 9.01005 122.085 9.12262 122.085 9.24817C122.085 9.33692 122.106 9.4181 122.147 9.4917C122.188 9.56313 122.251 9.63024 122.335 9.69302C122.42 9.75363 122.526 9.81099 122.654 9.86511C122.781 9.91923 122.932 9.97118 123.105 10.021C123.367 10.0989 123.595 10.1855 123.79 10.2807C123.985 10.3738 124.147 10.4799 124.277 10.599C124.407 10.718 124.504 10.8533 124.569 11.0048C124.634 11.1542 124.667 11.3241 124.667 11.5146C124.667 11.7138 124.627 11.8934 124.547 12.0536C124.467 12.2117 124.352 12.347 124.203 12.4595C124.055 12.5699 123.878 12.6554 123.67 12.716C123.464 12.7745 123.235 12.8037 122.982 12.8037C122.754 12.8037 122.53 12.7734 122.309 12.7128C122.091 12.6522 121.892 12.5602 121.712 12.4368C121.532 12.3112 121.389 12.1554 121.283 11.9692C121.177 11.7809 121.124 11.5612 121.124 11.3101H121.939C121.939 11.4638 121.965 11.5947 122.017 11.703C122.071 11.8112 122.146 11.8999 122.241 11.9692C122.337 12.0363 122.447 12.0861 122.572 12.1186C122.7 12.151 122.837 12.1673 122.982 12.1673C123.172 12.1673 123.331 12.1402 123.459 12.0861C123.589 12.032 123.686 11.9562 123.751 11.8588C123.816 11.7614 123.849 11.6488 123.849 11.5211Z" fill="white"/>
<path d="M76.3949 31.9014L77.7767 27.608H78.776L76.8927 32.8611H76.2181L76.3949 31.9014ZM75.1177 27.608L76.4887 31.9014L76.6763 32.8611H75.998L74.1219 27.608H75.1177ZM80.2823 28.9574V32.8611H79.4092V28.9574H80.2823ZM79.3514 27.9328C79.3514 27.8005 79.3947 27.691 79.4813 27.6044C79.5703 27.5154 79.693 27.4709 79.8493 27.4709C80.0032 27.4709 80.1247 27.5154 80.2137 27.6044C80.3027 27.691 80.3472 27.8005 80.3472 27.9328C80.3472 28.0626 80.3027 28.1709 80.2137 28.2575C80.1247 28.344 80.0032 28.3873 79.8493 28.3873C79.693 28.3873 79.5703 28.344 79.4813 28.2575C79.3947 28.1709 79.3514 28.0626 79.3514 27.9328ZM81.1427 30.9525V30.8695C81.1427 30.5881 81.1835 30.3272 81.2653 30.0866C81.3471 29.8437 81.465 29.6333 81.6189 29.4553C81.7752 29.2749 81.9652 29.1354 82.1889 29.0368C82.415 28.9357 82.67 28.8852 82.9538 28.8852C83.24 28.8852 83.495 28.9357 83.7187 29.0368C83.9448 29.1354 84.136 29.2749 84.2923 29.4553C84.4487 29.6333 84.5677 29.8437 84.6495 30.0866C84.7313 30.3272 84.7722 30.5881 84.7722 30.8695V30.9525C84.7722 31.2339 84.7313 31.4949 84.6495 31.7354C84.5677 31.976 84.4487 32.1864 84.2923 32.3668C84.136 32.5448 83.946 32.6843 83.7223 32.7853C83.4986 32.8839 83.2448 32.9332 82.961 32.9332C82.6748 32.9332 82.4186 32.8839 82.1925 32.7853C81.9689 32.6843 81.7788 32.5448 81.6225 32.3668C81.4662 32.1864 81.3471 31.976 81.2653 31.7354C81.1835 31.4949 81.1427 31.2339 81.1427 30.9525ZM82.0121 30.8695V30.9525C82.0121 31.1281 82.0302 31.2941 82.0663 31.4504C82.1023 31.6068 82.1589 31.7439 82.2358 31.8617C82.3128 31.9796 82.4114 32.0722 82.5317 32.1395C82.6519 32.2069 82.7951 32.2405 82.961 32.2405C83.1222 32.2405 83.2617 32.2069 83.3795 32.1395C83.4998 32.0722 83.5984 31.9796 83.6754 31.8617C83.7523 31.7439 83.8089 31.6068 83.8449 31.4504C83.8834 31.2941 83.9027 31.1281 83.9027 30.9525V30.8695C83.9027 30.6964 83.8834 30.5328 83.8449 30.3789C83.8089 30.2225 83.7511 30.0842 83.6718 29.964C83.5948 29.8437 83.4962 29.7499 83.3759 29.6826C83.2581 29.6128 83.1174 29.5779 82.9538 29.5779C82.7902 29.5779 82.6483 29.6128 82.5281 29.6826C82.4102 29.7499 82.3128 29.8437 82.2358 29.964C82.1589 30.0842 82.1023 30.2225 82.0663 30.3789C82.0302 30.5328 82.0121 30.6964 82.0121 30.8695ZM86.5057 27.3194V32.8611H85.6326V27.3194H86.5057ZM89.253 32.9332C88.9643 32.9332 88.7034 32.8863 88.4701 32.7925C88.2392 32.6963 88.0419 32.5628 87.8784 32.3921C87.7172 32.2213 87.5934 32.0205 87.5068 31.7896C87.4202 31.5586 87.3769 31.3097 87.3769 31.0427V30.8984C87.3769 30.5929 87.4214 30.3163 87.5104 30.0686C87.5994 29.8209 87.7232 29.6092 87.882 29.4336C88.0407 29.2556 88.2283 29.1197 88.4448 29.0259C88.6613 28.9321 88.8958 28.8852 89.1483 28.8852C89.4274 28.8852 89.6715 28.9321 89.8807 29.0259C90.09 29.1197 90.2632 29.252 90.4003 29.4228C90.5398 29.5912 90.6432 29.792 90.7105 30.0253C90.7803 30.2586 90.8152 30.516 90.8152 30.7974V31.169H87.799V30.5448H89.9565V30.4763C89.9517 30.32 89.9204 30.1732 89.8627 30.0361C89.8074 29.899 89.722 29.7884 89.6065 29.7042C89.4911 29.62 89.3372 29.5779 89.1447 29.5779C89.0004 29.5779 88.8717 29.6092 88.7587 29.6717C88.6481 29.7319 88.5555 29.8197 88.4809 29.9351C88.4063 30.0506 88.3486 30.1901 88.3077 30.3536C88.2692 30.5148 88.25 30.6964 88.25 30.8984V31.0427C88.25 31.2135 88.2728 31.3722 88.3185 31.519C88.3666 31.6633 88.4364 31.7896 88.5278 31.8978C88.6192 32.006 88.7298 32.0914 88.8597 32.1539C88.9896 32.2141 89.1375 32.2441 89.3035 32.2441C89.5127 32.2441 89.6991 32.202 89.8627 32.1179C90.0263 32.0337 90.1682 31.9146 90.2884 31.7607L90.7466 32.2045C90.6624 32.3271 90.553 32.445 90.4183 32.558C90.2836 32.6687 90.1189 32.7589 89.924 32.8286C89.7316 32.8984 89.5079 32.9332 89.253 32.9332ZM89.3396 27.3194L90.3389 28.3152V28.3549H89.6354L89.0834 27.7884L88.5314 28.3549H87.8423V28.308L88.8272 27.3194H89.3396ZM92.4296 29.7908V32.8611H91.5601V28.9574H92.3791L92.4296 29.7908ZM92.2745 30.7649L91.9931 30.7613C91.9955 30.4847 92.034 30.231 92.1085 30.0001C92.1855 29.7692 92.2913 29.5707 92.426 29.4048C92.5631 29.2388 92.7267 29.1113 92.9167 29.0223C93.1067 28.9309 93.3184 28.8852 93.5517 28.8852C93.7393 28.8852 93.9088 28.9117 94.0604 28.9646C94.2143 29.0151 94.3454 29.0981 94.4536 29.2135C94.5643 29.329 94.6484 29.4793 94.7062 29.6645C94.7639 29.8473 94.7928 30.0722 94.7928 30.3392V32.8611H93.9197V30.3356C93.9197 30.148 93.892 30.0001 93.8367 29.8918C93.7838 29.7812 93.7056 29.703 93.6022 29.6573C93.5011 29.6092 93.3749 29.5852 93.2233 29.5852C93.0742 29.5852 92.9407 29.6164 92.8229 29.679C92.705 29.7415 92.6052 29.8269 92.5234 29.9351C92.444 30.0433 92.3827 30.1684 92.3394 30.3103C92.2961 30.4522 92.2745 30.6038 92.2745 30.7649ZM97.3489 32.2405C97.4908 32.2405 97.6182 32.2129 97.7313 32.1576C97.8467 32.0998 97.9393 32.0205 98.0091 31.9194C98.0812 31.8184 98.1209 31.7018 98.1282 31.5695H98.9471C98.9423 31.822 98.8678 32.0517 98.7234 32.2586C98.5791 32.4654 98.3879 32.6302 98.1498 32.7528C97.9117 32.8731 97.6483 32.9332 97.3597 32.9332C97.0614 32.9332 96.8017 32.8827 96.5804 32.7817C96.3591 32.6783 96.1751 32.5364 96.0284 32.356C95.8817 32.1756 95.771 31.9675 95.6965 31.7318C95.6243 31.4961 95.5882 31.2436 95.5882 30.9742V30.8479C95.5882 30.5785 95.6243 30.326 95.6965 30.0903C95.771 29.8521 95.8817 29.6429 96.0284 29.4625C96.1751 29.2821 96.3591 29.1414 96.5804 29.0404C96.8017 28.9369 97.0602 28.8852 97.3561 28.8852C97.6688 28.8852 97.9429 28.9478 98.1787 29.0728C98.4144 29.1955 98.5996 29.3675 98.7343 29.5888C98.8714 29.8076 98.9423 30.0626 98.9471 30.3536H98.1282C98.1209 30.2093 98.0849 30.0794 98.0199 29.964C97.9574 29.8461 97.8684 29.7523 97.7529 29.6826C97.6399 29.6128 97.504 29.5779 97.3452 29.5779C97.1697 29.5779 97.0241 29.614 96.9087 29.6862C96.7932 29.7559 96.703 29.8521 96.6381 29.9748C96.5732 30.0951 96.5263 30.231 96.4974 30.3825C96.4709 30.5316 96.4577 30.6867 96.4577 30.8479V30.9742C96.4577 31.1353 96.4709 31.2917 96.4974 31.4432C96.5239 31.5947 96.5696 31.7306 96.6345 31.8509C96.7018 31.9687 96.7932 32.0637 96.9087 32.1359C97.0241 32.2057 97.1709 32.2405 97.3489 32.2405ZM100.619 28.9574V32.8611H99.7462V28.9574H100.619ZM99.6885 27.9328C99.6885 27.8005 99.7318 27.691 99.8184 27.6044C99.9074 27.5154 100.03 27.4709 100.186 27.4709C100.34 27.4709 100.462 27.5154 100.551 27.6044C100.64 27.691 100.684 27.8005 100.684 27.9328C100.684 28.0626 100.64 28.1709 100.551 28.2575C100.462 28.344 100.34 28.3873 100.186 28.3873C100.03 28.3873 99.9074 28.344 99.8184 28.2575C99.7318 28.1709 99.6885 28.0626 99.6885 27.9328ZM103.846 32.0782V30.2165C103.846 30.077 103.821 29.9568 103.771 29.8557C103.72 29.7547 103.643 29.6766 103.54 29.6212C103.439 29.5659 103.311 29.5382 103.157 29.5382C103.015 29.5382 102.893 29.5623 102.789 29.6104C102.686 29.6585 102.605 29.7235 102.548 29.8052C102.49 29.887 102.461 29.9796 102.461 30.083H101.595C101.595 29.9291 101.632 29.78 101.707 29.6357C101.782 29.4913 101.89 29.3627 102.032 29.2496C102.174 29.1366 102.343 29.0476 102.54 28.9826C102.738 28.9177 102.959 28.8852 103.204 28.8852C103.498 28.8852 103.757 28.9345 103.984 29.0331C104.212 29.1318 104.391 29.2809 104.521 29.4805C104.653 29.6778 104.72 29.9255 104.72 30.2237V31.9591C104.72 32.1371 104.732 32.2971 104.756 32.439C104.782 32.5785 104.819 32.6999 104.867 32.8034V32.8611H103.976C103.935 32.7673 103.903 32.6482 103.879 32.5039C103.857 32.3572 103.846 32.2153 103.846 32.0782ZM103.973 30.4871L103.98 31.0247H103.356C103.195 31.0247 103.053 31.0403 102.93 31.0716C102.807 31.1005 102.705 31.1437 102.623 31.2015C102.542 31.2592 102.48 31.3289 102.439 31.4107C102.399 31.4925 102.378 31.5851 102.378 31.6885C102.378 31.792 102.402 31.887 102.45 31.9736C102.498 32.0577 102.568 32.1239 102.659 32.172C102.753 32.2201 102.866 32.2441 102.999 32.2441C103.177 32.2441 103.332 32.2081 103.464 32.1359C103.599 32.0613 103.705 31.9711 103.782 31.8653C103.858 31.7571 103.899 31.6549 103.904 31.5586L104.186 31.9447C104.157 32.0433 104.107 32.1491 104.038 32.2622C103.968 32.3752 103.877 32.4835 103.763 32.5869C103.653 32.6879 103.519 32.7709 103.363 32.8358C103.209 32.9008 103.031 32.9332 102.829 32.9332C102.574 32.9332 102.347 32.8827 102.147 32.7817C101.948 32.6783 101.791 32.54 101.678 32.3668C101.565 32.1912 101.509 31.9928 101.509 31.7715C101.509 31.5647 101.547 31.3819 101.624 31.2231C101.703 31.062 101.819 30.9273 101.97 30.819C102.124 30.7108 102.312 30.629 102.533 30.5737C102.754 30.516 103.007 30.4871 103.291 30.4871H103.973ZM79.7383 41.8611H78.6163L78.6235 41.1431H79.7383C80.063 41.1431 80.3348 41.0722 80.5537 40.9303C80.775 40.7883 80.941 40.5851 81.0516 40.3205C81.1646 40.056 81.2212 39.7409 81.2212 39.3753V39.0903C81.2212 38.8064 81.1887 38.5551 81.1237 38.3362C81.0612 38.1173 80.9674 37.9333 80.8423 37.7842C80.7197 37.6351 80.5681 37.522 80.3877 37.4451C80.2098 37.3681 80.0041 37.3296 79.7708 37.3296H78.5946V36.608H79.7708C80.1196 36.608 80.4383 36.667 80.7269 36.7848C81.0155 36.9003 81.2645 37.0674 81.4737 37.2863C81.6854 37.5052 81.8477 37.7674 81.9608 38.0728C82.0738 38.3783 82.1303 38.7198 82.1303 39.0975V39.3753C82.1303 39.7529 82.0738 40.0944 81.9608 40.3999C81.8477 40.7054 81.6854 40.9675 81.4737 41.1864C81.2621 41.4029 81.0095 41.5701 80.7161 41.6879C80.425 41.8034 80.0991 41.8611 79.7383 41.8611ZM79.1178 36.608V41.8611H78.2122V36.608H79.1178ZM83.8999 38.7006V41.8611H83.0304V37.9574H83.8602L83.8999 38.7006ZM85.0941 37.9321L85.0869 38.7403C85.034 38.7307 84.9763 38.7235 84.9137 38.7186C84.8536 38.7138 84.7935 38.7114 84.7333 38.7114C84.5842 38.7114 84.4531 38.7331 84.3401 38.7764C84.227 38.8173 84.132 38.8774 84.0551 38.9568C83.9805 39.0337 83.9228 39.1275 83.8819 39.2382C83.841 39.3488 83.8169 39.4727 83.8097 39.6098L83.6113 39.6242C83.6113 39.3789 83.6353 39.1516 83.6835 38.9423C83.7316 38.7331 83.8037 38.5491 83.8999 38.3903C83.9985 38.2316 84.1212 38.1077 84.2679 38.0187C84.417 37.9297 84.589 37.8852 84.7838 37.8852C84.8368 37.8852 84.8933 37.89 84.9534 37.8997C85.016 37.9093 85.0629 37.9201 85.0941 37.9321ZM85.453 39.9525V39.8695C85.453 39.5881 85.4939 39.3272 85.5757 39.0866C85.6575 38.8437 85.7753 38.6333 85.9293 38.4553C86.0856 38.2749 86.2756 38.1354 86.4993 38.0368C86.7254 37.9357 86.9804 37.8852 87.2642 37.8852C87.5504 37.8852 87.8054 37.9357 88.029 38.0368C88.2551 38.1354 88.4463 38.2749 88.6027 38.4553C88.759 38.6333 88.8781 38.8437 88.9599 39.0866C89.0416 39.3272 89.0825 39.5881 89.0825 39.8695V39.9525C89.0825 40.2339 89.0416 40.4949 88.9599 40.7354C88.8781 40.976 88.759 41.1864 88.6027 41.3668C88.4463 41.5448 88.2563 41.6843 88.0326 41.7853C87.809 41.8839 87.5552 41.9332 87.2714 41.9332C86.9852 41.9332 86.729 41.8839 86.5029 41.7853C86.2792 41.6843 86.0892 41.5448 85.9329 41.3668C85.7765 41.1864 85.6575 40.976 85.5757 40.7354C85.4939 40.4949 85.453 40.2339 85.453 39.9525ZM86.3225 39.8695V39.9525C86.3225 40.1281 86.3406 40.2941 86.3766 40.4504C86.4127 40.6068 86.4692 40.7439 86.5462 40.8617C86.6232 40.9796 86.7218 41.0722 86.8421 41.1395C86.9623 41.2069 87.1054 41.2405 87.2714 41.2405C87.4325 41.2405 87.572 41.2069 87.6899 41.1395C87.8102 41.0722 87.9088 40.9796 87.9857 40.8617C88.0627 40.7439 88.1192 40.6068 88.1553 40.4504C88.1938 40.2941 88.213 40.1281 88.213 39.9525V39.8695C88.213 39.6964 88.1938 39.5328 88.1553 39.3789C88.1192 39.2225 88.0615 39.0842 87.9821 38.964C87.9052 38.8437 87.8066 38.7499 87.6863 38.6826C87.5684 38.6128 87.4277 38.5779 87.2642 38.5779C87.1006 38.5779 86.9587 38.6128 86.8384 38.6826C86.7206 38.7499 86.6232 38.8437 86.5462 38.964C86.4692 39.0842 86.4127 39.2225 86.3766 39.3789C86.3406 39.5328 86.3225 39.6964 86.3225 39.8695ZM92.3855 37.9574H93.1756V41.7528C93.1756 42.104 93.101 42.4023 92.9519 42.6476C92.8028 42.8929 92.5947 43.0793 92.3277 43.2068C92.0607 43.3367 91.7517 43.4016 91.4005 43.4016C91.2514 43.4016 91.0854 43.38 90.9026 43.3367C90.7222 43.2934 90.5467 43.2237 90.3759 43.1274C90.2075 43.0336 90.0668 42.9098 89.9538 42.7558L90.3614 42.2435C90.501 42.4095 90.6549 42.5309 90.8233 42.6079C90.9916 42.6849 91.1684 42.7234 91.3536 42.7234C91.5532 42.7234 91.7228 42.6861 91.8623 42.6115C92.0042 42.5394 92.1137 42.4323 92.1906 42.2904C92.2676 42.1485 92.3061 41.9753 92.3061 41.7709V38.8413L92.3855 37.9574ZM89.7337 39.9525V39.8768C89.7337 39.5809 89.7698 39.3115 89.8419 39.0686C89.9141 38.8233 90.0175 38.6128 90.1522 38.4372C90.2869 38.2592 90.4504 38.1233 90.6429 38.0295C90.8353 37.9333 91.053 37.8852 91.2959 37.8852C91.5484 37.8852 91.7637 37.9309 91.9417 38.0223C92.1221 38.1137 92.2724 38.2448 92.3927 38.4156C92.5129 38.5839 92.6067 38.786 92.6741 39.0217C92.7438 39.255 92.7955 39.5148 92.8292 39.801V40.0427C92.798 40.3217 92.745 40.5767 92.6705 40.8076C92.5959 41.0385 92.4973 41.2381 92.3746 41.4065C92.252 41.5749 92.1004 41.7047 91.92 41.7961C91.7421 41.8875 91.5316 41.9332 91.2887 41.9332C91.0505 41.9332 90.8353 41.8839 90.6429 41.7853C90.4528 41.6867 90.2893 41.5484 90.1522 41.3704C90.0175 41.1924 89.9141 40.9832 89.8419 40.7426C89.7698 40.4997 89.7337 40.2363 89.7337 39.9525ZM90.6032 39.8768V39.9525C90.6032 40.1305 90.62 40.2965 90.6537 40.4504C90.6898 40.6043 90.7439 40.7402 90.816 40.8581C90.8906 40.9736 90.9844 41.065 91.0975 41.1323C91.2129 41.1972 91.3488 41.2297 91.5051 41.2297C91.7096 41.2297 91.8767 41.1864 92.0066 41.0998C92.1389 41.0132 92.2399 40.8966 92.3097 40.7499C92.3818 40.6007 92.4324 40.4348 92.4612 40.252V39.599C92.4468 39.457 92.4167 39.3248 92.371 39.2021C92.3277 39.0794 92.2688 38.9724 92.1942 38.881C92.1197 38.7872 92.0259 38.715 91.9128 38.6645C91.7998 38.6116 91.6663 38.5852 91.5124 38.5852C91.356 38.5852 91.2201 38.6188 91.1047 38.6862C90.9892 38.7535 90.8942 38.8461 90.8196 38.964C90.7475 39.0818 90.6934 39.2189 90.6573 39.3753C90.6212 39.5316 90.6032 39.6988 90.6032 39.8768ZM96.3522 41.0782V39.2165C96.3522 39.077 96.327 38.9568 96.2765 38.8557C96.2259 38.7547 96.149 38.6766 96.0456 38.6212C95.9445 38.5659 95.8171 38.5382 95.6631 38.5382C95.5212 38.5382 95.3985 38.5623 95.2951 38.6104C95.1917 38.6585 95.1111 38.7235 95.0534 38.8052C94.9957 38.887 94.9668 38.9796 94.9668 39.083H94.1009C94.1009 38.9291 94.1382 38.78 94.2128 38.6357C94.2873 38.4913 94.3956 38.3627 94.5375 38.2496C94.6794 38.1366 94.8489 38.0476 95.0462 37.9826C95.2434 37.9177 95.4647 37.8852 95.71 37.8852C96.0035 37.8852 96.2632 37.9345 96.4893 38.0331C96.7178 38.1318 96.897 38.2809 97.0269 38.4805C97.1592 38.6778 97.2253 38.9255 97.2253 39.2237V40.9591C97.2253 41.1371 97.2373 41.2971 97.2614 41.439C97.2879 41.5785 97.3251 41.6999 97.3732 41.8034V41.8611H96.4821C96.4412 41.7673 96.4087 41.6482 96.3847 41.5039C96.363 41.3572 96.3522 41.2153 96.3522 41.0782ZM96.4785 39.4871L96.4857 40.0247H95.8616C95.7004 40.0247 95.5585 40.0403 95.4358 40.0716C95.3132 40.1005 95.2109 40.1437 95.1292 40.2015C95.0474 40.2592 94.986 40.3289 94.9452 40.4107C94.9043 40.4925 94.8838 40.5851 94.8838 40.6885C94.8838 40.792 94.9079 40.887 94.956 40.9736C95.0041 41.0577 95.0738 41.1239 95.1652 41.172C95.259 41.2201 95.3721 41.2441 95.5044 41.2441C95.6824 41.2441 95.8375 41.2081 95.9698 41.1359C96.1045 41.0613 96.2103 40.9711 96.2873 40.8653C96.3642 40.7571 96.4051 40.6549 96.4099 40.5586L96.6914 40.9447C96.6625 41.0433 96.6132 41.1491 96.5434 41.2622C96.4737 41.3752 96.3823 41.4835 96.2692 41.5869C96.1586 41.6879 96.0251 41.7709 95.8688 41.8358C95.7148 41.9008 95.5368 41.9332 95.3348 41.9332C95.0798 41.9332 94.8526 41.8827 94.6529 41.7817C94.4533 41.6783 94.2969 41.54 94.1839 41.3668C94.0709 41.1912 94.0143 40.9928 94.0143 40.7715C94.0143 40.5647 94.0528 40.3819 94.1298 40.2231C94.2092 40.062 94.3246 39.9273 94.4761 39.819C94.6301 39.7108 94.8177 39.629 95.039 39.5737C95.2602 39.516 95.5128 39.4871 95.7966 39.4871H96.4785ZM100.398 40.804C100.398 40.7174 100.377 40.6392 100.333 40.5695C100.29 40.4973 100.207 40.4324 100.084 40.3746C99.9642 40.3169 99.7862 40.264 99.5505 40.2159C99.3437 40.1702 99.1536 40.1161 98.9805 40.0535C98.8097 39.9886 98.663 39.9104 98.5403 39.819C98.4176 39.7276 98.3226 39.6194 98.2553 39.4943C98.1879 39.3693 98.1543 39.2249 98.1543 39.0614C98.1543 38.9026 98.1891 38.7523 98.2589 38.6104C98.3287 38.4685 98.4285 38.3434 98.5584 38.2352C98.6882 38.127 98.8458 38.0416 99.031 37.979C99.2186 37.9165 99.4278 37.8852 99.6587 37.8852C99.9859 37.8852 100.266 37.9405 100.499 38.0512C100.735 38.1594 100.915 38.3073 101.041 38.495C101.166 38.6802 101.228 38.8894 101.228 39.1227H100.359C100.359 39.0193 100.332 38.9231 100.279 38.8341C100.229 38.7427 100.152 38.6693 100.048 38.614C99.945 38.5563 99.8151 38.5274 99.6587 38.5274C99.5096 38.5274 99.3858 38.5515 99.2871 38.5996C99.1909 38.6453 99.1188 38.7054 99.0707 38.78C99.025 38.8545 99.0021 38.9363 99.0021 39.0253C99.0021 39.0903 99.0141 39.1492 99.0382 39.2021C99.0647 39.2526 99.1079 39.2995 99.1681 39.3428C99.2282 39.3837 99.31 39.4222 99.4134 39.4583C99.5192 39.4943 99.6515 39.5292 99.8103 39.5629C100.109 39.6254 100.365 39.706 100.579 39.8046C100.795 39.9008 100.961 40.0259 101.077 40.1798C101.192 40.3314 101.25 40.5238 101.25 40.7571C101.25 40.9303 101.213 41.089 101.138 41.2333C101.066 41.3752 100.96 41.4991 100.82 41.6049C100.681 41.7084 100.514 41.7889 100.319 41.8467C100.127 41.9044 99.9101 41.9332 99.6696 41.9332C99.316 41.9332 99.0165 41.8707 98.7712 41.7456C98.5259 41.6182 98.3395 41.4558 98.212 41.2586C98.0869 41.0589 98.0244 40.8521 98.0244 40.638H98.865C98.8746 40.7992 98.9191 40.9279 98.9985 41.0241C99.0803 41.1179 99.1813 41.1864 99.3016 41.2297C99.4242 41.2706 99.5505 41.291 99.6804 41.291C99.8367 41.291 99.9678 41.2706 100.074 41.2297C100.179 41.1864 100.26 41.1287 100.315 41.0565C100.371 40.982 100.398 40.8978 100.398 40.804Z" fill="#DDE6FF"/>
<path d="M45.291 62.362H45.7347C45.6987 62.7156 45.6013 63.0211 45.4425 63.2784C45.2838 63.5334 45.0673 63.7294 44.7931 63.8665C44.5189 64.0036 44.1882 64.0722 43.8009 64.0722C43.5027 64.0722 43.2321 64.0156 42.9892 63.9026C42.7486 63.7895 42.5418 63.6296 42.3686 63.4227C42.1954 63.2135 42.0619 62.9633 41.9681 62.6723C41.8743 62.3813 41.8274 62.0578 41.8274 61.7018V61.0452C41.8274 60.6892 41.8743 60.3669 41.9681 60.0783C42.0619 59.7872 42.1966 59.5371 42.3722 59.3278C42.5478 59.1186 42.7583 58.9574 43.0036 58.8444C43.2489 58.7313 43.5255 58.6748 43.8334 58.6748C44.2062 58.6748 44.5285 58.7434 44.8003 58.8805C45.0721 59.0151 45.2862 59.21 45.4425 59.4649C45.6013 59.7199 45.6987 60.0278 45.7347 60.3885H45.291C45.2573 60.1047 45.1827 59.8642 45.0673 59.667C44.9518 59.4697 44.7919 59.3194 44.5874 59.216C44.3854 59.1102 44.1341 59.0572 43.8334 59.0572C43.5881 59.0572 43.3692 59.1041 43.1768 59.1979C42.9844 59.2917 42.8208 59.4264 42.6861 59.602C42.5514 59.7752 42.448 59.9833 42.3758 60.2262C42.3061 60.4691 42.2712 60.7397 42.2712 61.038V61.7018C42.2712 61.9904 42.3049 62.2562 42.3722 62.4991C42.4396 62.7421 42.5382 62.9525 42.6681 63.1305C42.8004 63.3085 42.9615 63.4468 43.1515 63.5454C43.3415 63.644 43.558 63.6933 43.8009 63.6933C44.1112 63.6933 44.3698 63.644 44.5766 63.5454C44.7859 63.4444 44.9482 63.2953 45.0637 63.098C45.1791 62.9008 45.2549 62.6555 45.291 62.362ZM46.5518 62.1095V61.9904C46.5518 61.7066 46.5927 61.4444 46.6745 61.2039C46.7563 60.9634 46.8729 60.7553 47.0245 60.5798C47.1784 60.4042 47.3624 60.2683 47.5765 60.1721C47.7905 60.0735 48.0287 60.0241 48.2908 60.0241C48.5554 60.0241 48.7947 60.0735 49.0088 60.1721C49.2229 60.2683 49.4069 60.4042 49.5608 60.5798C49.7147 60.7553 49.8326 60.9634 49.9144 61.2039C49.9961 61.4444 50.037 61.7066 50.037 61.9904V62.1095C50.037 62.3933 49.9961 62.6555 49.9144 62.896C49.8326 63.1341 49.7147 63.341 49.5608 63.5165C49.4093 63.6921 49.2265 63.8292 49.0124 63.9278C48.7983 64.0241 48.5602 64.0722 48.2981 64.0722C48.0335 64.0722 47.7942 64.0241 47.5801 63.9278C47.366 63.8292 47.182 63.6921 47.0281 63.5165C46.8742 63.341 46.7563 63.1341 46.6745 62.896C46.5927 62.6555 46.5518 62.3933 46.5518 62.1095ZM46.9812 61.9904V62.1095C46.9812 62.3235 47.01 62.5268 47.0678 62.7192C47.1255 62.9092 47.2097 63.0788 47.3203 63.2279C47.431 63.3746 47.5681 63.4901 47.7316 63.5743C47.8952 63.6585 48.084 63.7005 48.2981 63.7005C48.5097 63.7005 48.6961 63.6585 48.8573 63.5743C49.0208 63.4901 49.1579 63.3746 49.2686 63.2279C49.3792 63.0788 49.4622 62.9092 49.5175 62.7192C49.5752 62.5268 49.6041 62.3235 49.6041 62.1095V61.9904C49.6041 61.7788 49.5752 61.5779 49.5175 61.3879C49.4622 61.1979 49.378 61.0283 49.265 60.8792C49.1543 60.7301 49.0172 60.6122 48.8537 60.5256C48.6901 60.439 48.5025 60.3958 48.2908 60.3958C48.0792 60.3958 47.8916 60.439 47.728 60.5256C47.5669 60.6122 47.4298 60.7301 47.3167 60.8792C47.2061 61.0283 47.1219 61.1979 47.0642 61.3879C47.0088 61.5779 46.9812 61.7788 46.9812 61.9904ZM51.4134 60.9045V64H50.9804V60.0963H51.3953L51.4134 60.9045ZM51.334 61.8064L51.1247 61.6982C51.1392 61.4673 51.1825 61.2508 51.2546 61.0488C51.3292 60.8467 51.4326 60.6687 51.5649 60.5148C51.6972 60.3609 51.8559 60.2406 52.0411 60.154C52.2263 60.0674 52.4368 60.0241 52.6725 60.0241C52.8625 60.0241 53.0345 60.0506 53.1884 60.1035C53.3448 60.154 53.4771 60.2346 53.5853 60.3452C53.6959 60.4535 53.7813 60.5954 53.8415 60.771C53.9016 60.9466 53.9316 61.157 53.9316 61.4023V64H53.5023V61.4168C53.5023 61.157 53.4614 60.9538 53.3796 60.807C53.3003 60.6603 53.1884 60.5557 53.0441 60.4932C52.9022 60.4306 52.7374 60.3994 52.5498 60.3994C52.3286 60.3994 52.1409 60.4451 51.987 60.5365C51.8355 60.6255 51.7116 60.7421 51.6154 60.8864C51.5216 61.0283 51.4518 61.1811 51.4061 61.3446C51.3604 61.5058 51.3364 61.6597 51.334 61.8064ZM53.928 61.4673L53.6394 61.4745C53.6514 61.2845 53.6947 61.1029 53.7693 60.9297C53.8463 60.7565 53.9509 60.6026 54.0832 60.4679C54.2155 60.3308 54.373 60.2226 54.5558 60.1432C54.741 60.0638 54.9491 60.0241 55.18 60.0241C55.382 60.0241 55.5624 60.0518 55.7211 60.1071C55.8799 60.16 56.0134 60.2454 56.1216 60.3633C56.2323 60.4787 56.3164 60.6267 56.3742 60.807C56.4319 60.9874 56.4608 61.2039 56.4608 61.4565V64H56.0278V61.4529C56.0278 61.1763 55.9869 60.9622 55.9051 60.8107C55.8258 60.6567 55.7151 60.5497 55.5732 60.4896C55.4313 60.4294 55.2654 60.3994 55.0753 60.3994C54.8877 60.4018 54.723 60.4366 54.5811 60.504C54.4392 60.5689 54.3201 60.6555 54.2239 60.7638C54.1301 60.8696 54.0579 60.9838 54.0074 61.1065C53.9593 61.2292 53.9328 61.3494 53.928 61.4673ZM58.0572 60.8467V65.5009H57.6242V60.0963H58.0283L58.0572 60.8467ZM60.7703 62.0121V62.0878C60.7703 62.3789 60.7366 62.6459 60.6692 62.8888C60.6019 63.1317 60.5045 63.3422 60.377 63.5202C60.2519 63.6957 60.0968 63.8316 59.9116 63.9278C59.7264 64.0241 59.5159 64.0722 59.2802 64.0722C59.0469 64.0722 58.8389 64.0361 58.6561 63.9639C58.4733 63.8918 58.3157 63.7895 58.1834 63.6573C58.0535 63.5226 57.9489 63.3662 57.8695 63.1882C57.7926 63.0078 57.7385 62.8106 57.7072 62.5965V61.5972C57.7433 61.3615 57.8022 61.1474 57.884 60.955C57.9658 60.7626 58.0704 60.5966 58.1979 60.4571C58.3277 60.3176 58.4817 60.2105 58.6597 60.136C58.8377 60.0614 59.0409 60.0241 59.2694 60.0241C59.5075 60.0241 59.7192 60.071 59.9044 60.1648C60.092 60.2562 60.2495 60.3897 60.377 60.5653C60.5069 60.7385 60.6043 60.9478 60.6692 61.1931C60.7366 61.436 60.7703 61.709 60.7703 62.0121ZM60.3373 62.0878V62.0121C60.3373 61.7836 60.3133 61.5719 60.2652 61.3771C60.2195 61.1823 60.1485 61.0127 60.0523 60.8684C59.9585 60.7217 59.8382 60.6074 59.6915 60.5256C59.5472 60.4439 59.3752 60.403 59.1756 60.403C58.9687 60.403 58.792 60.4378 58.6452 60.5076C58.5009 60.5749 58.3807 60.6651 58.2845 60.7782C58.1882 60.8888 58.1125 61.0103 58.0572 61.1426C58.0018 61.2749 57.9609 61.4047 57.9345 61.5322V62.6831C57.9802 62.8659 58.0535 63.0355 58.1546 63.1918C58.2556 63.3458 58.3903 63.4696 58.5586 63.5634C58.7294 63.6548 58.9375 63.7005 59.1828 63.7005C59.38 63.7005 59.5508 63.6597 59.6951 63.5779C59.8394 63.4961 59.9585 63.3819 60.0523 63.2351C60.1485 63.0884 60.2195 62.9176 60.2652 62.7228C60.3133 62.528 60.3373 62.3163 60.3373 62.0878ZM62.2332 60.7421V64H61.8038V60.0963H62.2224L62.2332 60.7421ZM63.615 60.0674L63.6042 60.4643C63.5561 60.4571 63.5092 60.4511 63.4635 60.4463C63.4178 60.4415 63.3684 60.439 63.3155 60.439C63.1279 60.439 62.9632 60.4739 62.8213 60.5437C62.6818 60.611 62.5639 60.706 62.4677 60.8287C62.3715 60.949 62.2981 61.0909 62.2476 61.2544C62.1971 61.4156 62.1682 61.5887 62.161 61.774L62.0023 61.8353C62.0023 61.5803 62.0287 61.3434 62.0816 61.1245C62.1346 60.9057 62.2151 60.7144 62.3234 60.5509C62.434 60.3849 62.5723 60.2562 62.7383 60.1648C62.9066 60.071 63.1039 60.0241 63.33 60.0241C63.3853 60.0241 63.4394 60.029 63.4923 60.0386C63.5476 60.0458 63.5885 60.0554 63.615 60.0674ZM66.5968 63.3001V61.2869C66.5968 61.1017 66.5583 60.9417 66.4814 60.807C66.4044 60.6724 66.2913 60.5689 66.1422 60.4968C65.9931 60.4246 65.8091 60.3885 65.5902 60.3885C65.3882 60.3885 65.2078 60.4246 65.049 60.4968C64.8927 60.5665 64.7688 60.6615 64.6774 60.7818C64.5884 60.8996 64.5439 61.0307 64.5439 61.175L64.111 61.1714C64.111 61.0247 64.1471 60.8828 64.2192 60.7457C64.2914 60.6086 64.3936 60.4859 64.5259 60.3777C64.6582 60.2695 64.8157 60.1841 64.9985 60.1216C65.1837 60.0566 65.387 60.0241 65.6083 60.0241C65.8873 60.0241 66.1326 60.071 66.3443 60.1648C66.5583 60.2587 66.7255 60.3994 66.8457 60.587C66.966 60.7746 67.0261 61.0103 67.0261 61.2941V63.181C67.0261 63.3157 67.0358 63.4552 67.055 63.5995C67.0767 63.7438 67.1067 63.8629 67.1452 63.9567V64H66.687C66.6581 63.9134 66.6353 63.8052 66.6185 63.6753C66.604 63.543 66.5968 63.4179 66.5968 63.3001ZM66.6978 61.7271L66.705 62.059H65.8572C65.6359 62.059 65.4375 62.0794 65.2619 62.1203C65.0887 62.1588 64.942 62.2165 64.8217 62.2935C64.7015 62.368 64.6089 62.4582 64.5439 62.5641C64.4814 62.6699 64.4501 62.7902 64.4501 62.9249C64.4501 63.0644 64.485 63.1918 64.5548 63.3073C64.6269 63.4227 64.7279 63.5153 64.8578 63.5851C64.9901 63.6524 65.1464 63.6861 65.3268 63.6861C65.5674 63.6861 65.779 63.6416 65.9618 63.5526C66.147 63.4636 66.2998 63.347 66.42 63.2027C66.5403 63.0583 66.6209 62.9008 66.6617 62.73L66.8494 62.979C66.8181 63.0992 66.7604 63.2231 66.6762 63.3506C66.5944 63.4757 66.4874 63.5935 66.3551 63.7042C66.2228 63.8124 66.0665 63.9014 65.8861 63.9711C65.7081 64.0385 65.506 64.0722 65.2799 64.0722C65.025 64.0722 64.8025 64.0241 64.6125 63.9278C64.4249 63.8316 64.2782 63.7005 64.1723 63.5346C64.0689 63.3662 64.0172 63.1762 64.0172 62.9645C64.0172 62.7721 64.0581 62.6002 64.1399 62.4486C64.2216 62.2947 64.3395 62.1648 64.4934 62.059C64.6498 61.9507 64.8374 61.869 65.0563 61.8136C65.2775 61.7559 65.5253 61.7271 65.7995 61.7271H66.6978ZM70.596 63.0042C70.596 62.8984 70.5696 62.7938 70.5167 62.6903C70.4638 62.5869 70.3615 62.4919 70.21 62.4053C70.0609 62.3187 69.8408 62.2454 69.5498 62.1852C69.3333 62.1371 69.1397 62.083 68.9689 62.0229C68.8005 61.9628 68.6586 61.8906 68.5432 61.8064C68.4277 61.7222 68.3399 61.6212 68.2798 61.5034C68.2197 61.3855 68.1896 61.246 68.1896 61.0849C68.1896 60.9405 68.2209 60.8046 68.2834 60.6772C68.3483 60.5473 68.4397 60.4342 68.5576 60.338C68.6779 60.2394 68.8222 60.1624 68.9905 60.1071C69.1613 60.0518 69.3525 60.0241 69.5642 60.0241C69.8649 60.0241 70.1222 60.0759 70.3363 60.1793C70.5527 60.2803 70.7175 60.4186 70.8306 60.5942C70.946 60.7698 71.0037 60.9682 71.0037 61.1895H70.5744C70.5744 61.0548 70.5347 60.9273 70.4553 60.807C70.3784 60.6868 70.2641 60.5882 70.1126 60.5112C69.9635 60.4342 69.7807 60.3958 69.5642 60.3958C69.3405 60.3958 69.1589 60.4294 69.0194 60.4968C68.8799 60.5641 68.7777 60.6495 68.7127 60.7529C68.6502 60.8564 68.6189 60.9634 68.6189 61.074C68.6189 61.1606 68.6322 61.24 68.6586 61.3121C68.6875 61.3819 68.738 61.4468 68.8102 61.507C68.8847 61.5671 68.9905 61.6236 69.1276 61.6765C69.2647 61.7295 69.4427 61.7812 69.6616 61.8317C69.9767 61.9014 70.2341 61.9868 70.4337 62.0878C70.6357 62.1865 70.7849 62.3091 70.8811 62.4558C70.9773 62.6002 71.0254 62.7757 71.0254 62.9826C71.0254 63.1437 70.9917 63.2917 70.9244 63.4264C70.857 63.5586 70.7596 63.6729 70.6321 63.7691C70.507 63.8653 70.3555 63.9399 70.1775 63.9928C70.0019 64.0457 69.8047 64.0722 69.5858 64.0722C69.2563 64.0722 68.9773 64.018 68.7488 63.9098C68.5227 63.7992 68.3508 63.6548 68.2329 63.4769C68.1174 63.2965 68.0597 63.1053 68.0597 62.9032H68.4891C68.5035 63.1053 68.5672 63.2652 68.6803 63.3831C68.7933 63.4985 68.9316 63.5803 69.0952 63.6284C69.2611 63.6765 69.4247 63.7005 69.5858 63.7005C69.8071 63.7005 69.9923 63.6681 70.1415 63.6031C70.2906 63.5382 70.4036 63.4528 70.4806 63.347C70.5576 63.2411 70.596 63.1269 70.596 63.0042ZM73.7167 62.1095V61.9904C73.7167 61.7066 73.7576 61.4444 73.8394 61.2039C73.9211 60.9634 74.0378 60.7553 74.1893 60.5798C74.3433 60.4042 74.5273 60.2683 74.7413 60.1721C74.9554 60.0735 75.1935 60.0241 75.4557 60.0241C75.7203 60.0241 75.9596 60.0735 76.1736 60.1721C76.3877 60.2683 76.5717 60.4042 76.7256 60.5798C76.8796 60.7553 76.9974 60.9634 77.0792 61.2039C77.161 61.4444 77.2019 61.7066 77.2019 61.9904V62.1095C77.2019 62.3933 77.161 62.6555 77.0792 62.896C76.9974 63.1341 76.8796 63.341 76.7256 63.5165C76.5741 63.6921 76.3913 63.8292 76.1773 63.9278C75.9632 64.0241 75.7251 64.0722 75.4629 64.0722C75.1983 64.0722 74.959 64.0241 74.7449 63.9278C74.5309 63.8292 74.3469 63.6921 74.1929 63.5165C74.039 63.341 73.9211 63.1341 73.8394 62.896C73.7576 62.6555 73.7167 62.3933 73.7167 62.1095ZM74.146 61.9904V62.1095C74.146 62.3235 74.1749 62.5268 74.2326 62.7192C74.2903 62.9092 74.3745 63.0788 74.4852 63.2279C74.5958 63.3746 74.7329 63.4901 74.8965 63.5743C75.06 63.6585 75.2488 63.7005 75.4629 63.7005C75.6746 63.7005 75.861 63.6585 76.0221 63.5743C76.1857 63.4901 76.3228 63.3746 76.4334 63.2279C76.5441 63.0788 76.627 62.9092 76.6824 62.7192C76.7401 62.5268 76.7689 62.3235 76.7689 62.1095V61.9904C76.7689 61.7788 76.7401 61.5779 76.6824 61.3879C76.627 61.1979 76.5429 61.0283 76.4298 60.8792C76.3192 60.7301 76.1821 60.6122 76.0185 60.5256C75.855 60.439 75.6673 60.3958 75.4557 60.3958C75.244 60.3958 75.0564 60.439 74.8929 60.5256C74.7317 60.6122 74.5946 60.7301 74.4816 60.8792C74.3709 61.0283 74.2867 61.1979 74.229 61.3879C74.1737 61.5779 74.146 61.7788 74.146 61.9904ZM78.5999 60.9297V64H78.1705V60.0963H78.5818L78.5999 60.9297ZM78.5024 61.8064L78.3112 61.6982C78.3257 61.4673 78.3726 61.2508 78.4519 61.0488C78.5313 60.8467 78.6383 60.6687 78.773 60.5148C78.9101 60.3609 79.0701 60.2406 79.2529 60.154C79.4381 60.0674 79.6425 60.0241 79.8662 60.0241C80.061 60.0241 80.2354 60.0506 80.3894 60.1035C80.5433 60.1564 80.6744 60.2406 80.7826 60.3561C80.8908 60.4715 80.9726 60.6194 81.0279 60.7998C81.0857 60.9802 81.1145 61.2003 81.1145 61.4601V64H80.6816V61.4565C80.6816 61.1871 80.6443 60.9766 80.5697 60.8251C80.4952 60.6712 80.3894 60.5617 80.2523 60.4968C80.1152 60.4318 79.9528 60.3994 79.7652 60.3994C79.5583 60.3994 79.3767 60.4451 79.2204 60.5365C79.0665 60.6255 78.9366 60.7421 78.8308 60.8864C78.7273 61.0283 78.648 61.1811 78.5926 61.3446C78.5373 61.5058 78.5073 61.6597 78.5024 61.8064ZM82.7867 58.4583V64H82.3574V58.4583H82.7867ZM84.5202 60.0963V64H84.0909V60.0963H84.5202ZM84.0151 58.967C84.0151 58.8853 84.0404 58.8167 84.0909 58.7614C84.1438 58.7037 84.2159 58.6748 84.3073 58.6748C84.3987 58.6748 84.4709 58.7037 84.5238 58.7614C84.5791 58.8167 84.6068 58.8853 84.6068 58.967C84.6068 59.0464 84.5791 59.115 84.5238 59.1727C84.4709 59.228 84.3987 59.2557 84.3073 59.2557C84.2159 59.2557 84.1438 59.228 84.0909 59.1727C84.0404 59.115 84.0151 59.0464 84.0151 58.967ZM86.2032 60.9297V64H85.7739V60.0963H86.1852L86.2032 60.9297ZM86.1058 61.8064L85.9146 61.6982C85.929 61.4673 85.9759 61.2508 86.0553 61.0488C86.1346 60.8467 86.2417 60.6687 86.3764 60.5148C86.5135 60.3609 86.6734 60.2406 86.8562 60.154C87.0414 60.0674 87.2459 60.0241 87.4696 60.0241C87.6644 60.0241 87.8388 60.0506 87.9927 60.1035C88.1466 60.1564 88.2777 60.2406 88.3859 60.3561C88.4942 60.4715 88.576 60.6194 88.6313 60.7998C88.689 60.9802 88.7179 61.2003 88.7179 61.4601V64H88.2849V61.4565C88.2849 61.1871 88.2476 60.9766 88.1731 60.8251C88.0985 60.6712 87.9927 60.5617 87.8556 60.4968C87.7185 60.4318 87.5561 60.3994 87.3685 60.3994C87.1617 60.3994 86.9801 60.4451 86.8237 60.5365C86.6698 60.6255 86.5399 60.7421 86.4341 60.8864C86.3307 61.0283 86.2513 61.1811 86.196 61.3446C86.1407 61.5058 86.1106 61.6597 86.1058 61.8064ZM91.4183 64.0722C91.1633 64.0722 90.9288 64.0253 90.7147 63.9315C90.5031 63.8376 90.3179 63.7054 90.1591 63.5346C90.0028 63.3638 89.8813 63.1618 89.7947 62.9285C89.7106 62.6928 89.6685 62.4354 89.6685 62.1564V62.0012C89.6685 61.7006 89.713 61.4288 89.802 61.1859C89.8909 60.9429 90.0136 60.7349 90.17 60.5617C90.3263 60.3885 90.5043 60.2562 90.7039 60.1648C90.906 60.071 91.1176 60.0241 91.3389 60.0241C91.5866 60.0241 91.8067 60.0686 91.9991 60.1576C92.1916 60.2442 92.3527 60.3681 92.4826 60.5292C92.6149 60.688 92.7147 60.8768 92.782 61.0957C92.8494 61.3121 92.8831 61.5515 92.8831 61.8136V62.077H89.9282V61.709H92.4537V61.6585C92.4489 61.4396 92.4044 61.2352 92.3202 61.0452C92.2385 60.8527 92.1158 60.6964 91.9522 60.5761C91.7887 60.4559 91.5842 60.3958 91.3389 60.3958C91.1561 60.3958 90.9877 60.4342 90.8338 60.5112C90.6823 60.5882 90.5512 60.6988 90.4405 60.8431C90.3323 60.985 90.2481 61.1546 90.188 61.3518C90.1303 61.5467 90.1014 61.7631 90.1014 62.0012V62.1564C90.1014 62.3729 90.1327 62.5749 90.1952 62.7625C90.2602 62.9477 90.3516 63.1113 90.4694 63.2532C90.5897 63.3951 90.7316 63.5057 90.8951 63.5851C91.0587 63.6645 91.2391 63.7042 91.4363 63.7042C91.6672 63.7042 91.8717 63.6621 92.0496 63.5779C92.2276 63.4913 92.3876 63.3554 92.5295 63.1702L92.8001 63.3794C92.7159 63.5045 92.6101 63.62 92.4826 63.7258C92.3575 63.8316 92.2072 63.9158 92.0316 63.9784C91.856 64.0409 91.6516 64.0722 91.4183 64.0722Z" fill="#DDE6FF"/>
<rect x="10.5321" y="19.2112" width="39.1611" height="28.8167" rx="2.95556" fill="#DDE6FF"/>
<path d="M26.3158 25.1993V42.7285H23.4243V28.6307L19.141 30.0825V27.6949L25.9679 25.1993H26.3158ZM38.3152 25.1513H38.6752V27.5149H38.4712C37.4393 27.5149 36.5475 27.6749 35.7956 27.9948C35.0517 28.3148 34.4398 28.7547 33.9599 29.3146C33.48 29.8745 33.12 30.5304 32.8801 31.2823C32.6481 32.0262 32.5321 32.8181 32.5321 33.6579V36.4055C32.5321 37.1014 32.6081 37.7173 32.7601 38.2532C32.9121 38.7811 33.124 39.2251 33.396 39.585C33.6759 39.937 33.9959 40.2049 34.3558 40.3889C34.7158 40.5729 35.1037 40.6648 35.5196 40.6648C35.9516 40.6648 36.3435 40.5769 36.6955 40.4009C37.0474 40.2169 37.3474 39.9649 37.5953 39.645C37.8433 39.3251 38.0313 38.9451 38.1592 38.5052C38.2872 38.0652 38.3512 37.5853 38.3512 37.0654C38.3512 36.5695 38.2872 36.1056 38.1592 35.6736C38.0393 35.2337 37.8593 34.8498 37.6193 34.5218C37.3794 34.1859 37.0794 33.9259 36.7195 33.7419C36.3675 33.55 35.9596 33.454 35.4957 33.454C34.9197 33.454 34.3958 33.59 33.9239 33.8619C33.46 34.1339 33.084 34.4898 32.7961 34.9297C32.5161 35.3617 32.3641 35.8216 32.3401 36.3095L31.2363 35.9496C31.3003 35.2057 31.4643 34.5378 31.7282 33.9459C32.0002 33.354 32.3561 32.8501 32.7961 32.4341C33.236 32.0182 33.7439 31.7022 34.3198 31.4863C34.9037 31.2623 35.5436 31.1503 36.2395 31.1503C37.0874 31.1503 37.8233 31.3103 38.4472 31.6303C39.0711 31.9502 39.587 32.3861 39.9949 32.9381C40.4109 33.482 40.7188 34.1059 40.9188 34.8098C41.1268 35.5056 41.2308 36.2335 41.2308 36.9934C41.2308 37.8333 41.1028 38.6172 40.8468 39.345C40.5909 40.0649 40.2149 40.6968 39.719 41.2407C39.2311 41.7847 38.6352 42.2086 37.9313 42.5125C37.2354 42.8165 36.4435 42.9685 35.5556 42.9685C34.6198 42.9685 33.7839 42.7885 33.048 42.4286C32.3201 42.0686 31.7002 41.5727 31.1883 40.9408C30.6844 40.3089 30.3005 39.581 30.0365 38.7571C29.7725 37.9333 29.6406 37.0614 29.6406 36.1415V34.9417C29.6406 33.6139 29.8085 32.3621 30.1445 31.1863C30.4804 30.0025 30.9964 28.9587 31.6922 28.0548C32.3961 27.151 33.296 26.4431 34.3918 25.9312C35.4877 25.4112 36.7954 25.1513 38.3152 25.1513Z" fill="black"/>
</svg>
