<svg width="221" height="39" viewBox="0 0 221 39" fill="none" xmlns="http://www.w3.org/2000/svg">
<g clip-path="url(#clip0_1_996)">
<path d="M25.7411 11.3583C24.0415 10.5784 22.2189 10.0038 20.3132 9.67472C20.2785 9.66837 20.2439 9.68425 20.226 9.71597C19.9916 10.1329 19.7319 10.6768 19.5501 11.1043C17.5005 10.7974 15.4613 10.7974 13.4537 11.1043C13.2718 10.6673 13.0028 10.1329 12.7673 9.71597C12.7494 9.68529 12.7147 9.66941 12.6801 9.67472C10.7755 10.0027 8.95286 10.5773 7.25213 11.3583C7.23739 11.3646 7.22479 11.3752 7.2164 11.3889C3.75932 16.5538 2.81224 21.5917 3.27682 26.5671C3.2789 26.5914 3.2926 26.6147 3.31151 26.6295C5.59239 28.3046 7.80187 29.3214 9.97026 29.9955C10.0049 30.0061 10.0417 29.9934 10.0638 29.9648C10.5767 29.2644 11.034 28.5258 11.426 27.749C11.4491 27.7036 11.427 27.6496 11.3797 27.6316C10.6545 27.3565 9.96391 27.021 9.29958 26.6401C9.24703 26.6095 9.24281 26.5343 9.2912 26.4983C9.43099 26.3936 9.57083 26.2846 9.70432 26.1745C9.72849 26.1544 9.76213 26.1502 9.79052 26.1628C14.1547 28.1554 18.8794 28.1554 23.1921 26.1628C23.2205 26.1491 23.2541 26.1534 23.2793 26.1734C23.4129 26.2835 23.5527 26.3935 23.6935 26.4983C23.7418 26.5343 23.7386 26.6094 23.6861 26.6401C23.0218 27.0284 22.3313 27.3564 21.6049 27.6305C21.5577 27.6485 21.5366 27.7035 21.5598 27.749C21.9603 28.5246 22.4175 29.2632 22.9209 29.9637C22.942 29.9934 22.9798 30.0061 23.0145 29.9955C25.1934 29.3214 27.4029 28.3045 29.6838 26.6295C29.7038 26.6147 29.7164 26.5924 29.7184 26.5681C30.2745 20.816 28.7871 15.8194 25.7757 11.3899C25.7684 11.3752 25.7558 11.3646 25.7411 11.3583ZM12.0778 23.5376C10.7639 23.5376 9.68125 22.3313 9.68125 20.8499C9.68125 19.3684 10.7429 18.1622 12.0778 18.1622C13.4232 18.1622 14.4954 19.379 14.4743 20.8499C14.4743 22.3313 13.4127 23.5376 12.0778 23.5376ZM20.9386 23.5376C19.6247 23.5376 18.5421 22.3313 18.5421 20.8499C18.5421 19.3684 19.6037 18.1622 20.9386 18.1622C22.284 18.1622 23.3561 19.379 23.3352 20.8499C23.3352 22.3313 22.2841 23.5376 20.9386 23.5376Z" fill="#DDE6FF"/>
</g>
<path d="M67.53 38.8662C57.02 38.8662 48.5 30.3462 48.5 19.8362C48.5 9.32615 57.02 0.806152 67.53 0.806152C78.04 0.806152 86.56 9.32615 86.56 19.8362C86.56 30.3462 78.04 38.8662 67.53 38.8662Z" fill="#211E36"/>
<path d="M67.53 11.2811C70.316 11.2811 70.646 11.2921 71.746 11.3421C72.763 11.3881 73.316 11.5581 73.684 11.7011C74.171 11.8901 74.519 12.1161 74.884 12.4811C75.249 12.8461 75.475 13.1941 75.664 13.6811C75.807 14.0491 75.977 14.6011 76.023 15.6191C76.073 16.7191 76.084 17.0491 76.084 19.8351C76.084 22.6211 76.073 22.9511 76.023 24.0511C75.977 25.0681 75.807 25.6211 75.664 25.9891C75.475 26.4761 75.249 26.8241 74.884 27.1891C74.519 27.5541 74.171 27.7801 73.684 27.9691C73.316 28.1121 72.764 28.2821 71.746 28.3281C70.646 28.3781 70.316 28.3891 67.53 28.3891C64.744 28.3891 64.414 28.3781 63.314 28.3281C62.297 28.2821 61.744 28.1121 61.377 27.9691C60.89 27.7801 60.542 27.5531 60.177 27.1891C59.812 26.8241 59.586 26.4761 59.397 25.9891C59.254 25.6211 59.084 25.0691 59.038 24.0511C58.988 22.9511 58.977 22.6211 58.977 19.8351C58.977 17.0491 58.988 16.7191 59.038 15.6191C59.085 14.6021 59.255 14.0491 59.397 13.6811C59.586 13.1941 59.812 12.8471 60.177 12.4811C60.542 12.1161 60.89 11.8901 61.377 11.7011C61.745 11.5581 62.297 11.3881 63.314 11.3421C64.414 11.2921 64.744 11.2811 67.53 11.2811ZM67.53 9.40112C64.696 9.40112 64.341 9.41312 63.228 9.46412C62.117 9.51512 61.359 9.69112 60.695 9.94912C60.009 10.2161 59.427 10.5721 58.847 11.1531C58.267 11.7341 57.91 12.3151 57.644 13.0011C57.386 13.6651 57.21 14.4231 57.159 15.5341C57.108 16.6471 57.096 17.0021 57.096 19.8361C57.096 22.6701 57.108 23.0251 57.159 24.1381C57.209 25.2491 57.386 26.0071 57.644 26.6711C57.91 27.3571 58.267 27.9391 58.847 28.5191C59.427 29.0991 60.009 29.4561 60.695 29.7231C61.359 29.9811 62.117 30.1571 63.228 30.2081C64.341 30.2591 64.696 30.2711 67.53 30.2711C70.364 30.2711 70.719 30.2591 71.832 30.2081C72.943 30.1571 73.701 29.9811 74.365 29.7231C75.051 29.4561 75.633 29.1001 76.213 28.5191C76.793 27.9381 77.15 27.3571 77.417 26.6711C77.675 26.0071 77.851 25.2491 77.902 24.1381C77.953 23.0251 77.965 22.6701 77.965 19.8361C77.965 17.0021 77.953 16.6471 77.902 15.5341C77.851 14.4231 77.675 13.6651 77.417 13.0011C77.15 12.3151 76.794 11.7331 76.213 11.1531C75.632 10.5731 75.051 10.2161 74.365 9.94912C73.701 9.69112 72.943 9.51512 71.832 9.46412C70.719 9.41312 70.364 9.40112 67.53 9.40112Z" fill="#DDE6FF"/>
<path d="M67.53 14.4771C64.571 14.4771 62.172 16.8761 62.172 19.8351C62.172 22.7941 64.571 25.1931 67.53 25.1931C70.489 25.1931 72.888 22.7941 72.888 19.8351C72.888 16.8761 70.489 14.4771 67.53 14.4771ZM67.53 23.3131C65.609 23.3131 64.052 21.7561 64.052 19.8351C64.052 17.9141 65.609 16.3571 67.53 16.3571C69.451 16.3571 71.008 17.9141 71.008 19.8351C71.008 21.7561 69.451 23.3131 67.53 23.3131Z" fill="#DDE6FF"/>
<path d="M74.352 14.2662C74.352 14.9572 73.791 15.5182 73.1 15.5182C72.409 15.5182 71.848 14.9572 71.848 14.2662C71.848 13.5752 72.409 13.0142 73.1 13.0142C73.791 13.0142 74.352 13.5752 74.352 14.2662Z" fill="#DDE6FF"/>
<path d="M121.591 0.805664H121.59C111.08 0.805664 102.56 9.32568 102.56 19.8357V19.8367C102.56 30.3466 111.08 38.8667 121.59 38.8667H121.591C132.101 38.8667 140.621 30.3466 140.621 19.8367V19.8357C140.621 9.32568 132.101 0.805664 121.591 0.805664Z" fill="#211E36"/>
<path d="M136.185 12.4567C135.835 11.1377 134.803 10.0987 133.492 9.74573C131.117 9.10473 121.591 9.10474 121.591 9.10474C121.591 9.10474 112.066 9.10473 109.69 9.74573C108.379 10.0987 107.347 11.1367 106.997 12.4567C106.361 14.8477 106.361 19.8357 106.361 19.8357C106.361 19.8357 106.361 24.8237 106.997 27.2157C107.347 28.5347 108.38 29.5737 109.69 29.9257C112.066 30.5667 121.591 30.5667 121.591 30.5667C121.591 30.5667 131.116 30.5667 133.492 29.9257C134.803 29.5727 135.835 28.5347 136.185 27.2157C136.821 24.8247 136.821 19.8357 136.821 19.8357C136.821 19.8357 136.821 14.8477 136.185 12.4567Z" fill="#DDE6FF"/>
<path d="M118.475 24.3656V15.3066L126.437 19.8366L118.475 24.3656Z" fill="#211E36"/>
<g clip-path="url(#clip1_1_996)">
<path d="M179.136 13.8538C177.766 13.8538 176.502 13.4 175.487 12.6345C174.324 11.757 173.487 10.4699 173.192 8.98626C173.119 8.6197 173.079 8.24142 173.076 7.85376H169.163V18.545L169.158 24.4011C169.158 25.9667 168.139 27.2942 166.726 27.7611C166.315 27.8966 165.872 27.9608 165.411 27.9355C164.822 27.9031 164.271 27.7255 163.791 27.4386C162.771 26.8283 162.079 25.7211 162.06 24.4545C162.031 22.475 163.631 20.8611 165.609 20.8611C165.999 20.8611 166.374 20.9249 166.726 21.0406V18.1184V17.068C166.355 17.0131 165.978 16.9845 165.597 16.9845C163.432 16.9845 161.407 17.8845 159.96 19.5059C158.866 20.7313 158.209 22.2945 158.108 23.9338C157.975 26.0872 158.763 28.1342 160.292 29.6445C160.516 29.8663 160.752 30.072 160.998 30.2619C162.309 31.2702 163.91 31.8167 165.597 31.8167C165.978 31.8167 166.355 31.7886 166.726 31.7338C168.302 31.5003 169.756 30.7789 170.903 29.6445C172.313 28.2509 173.092 26.4008 173.101 24.4316L173.08 15.6866C173.753 16.2055 174.489 16.6349 175.278 16.9681C176.506 17.4861 177.807 17.7486 179.147 17.7481V14.907V13.8528C179.148 13.8538 179.137 13.8538 179.136 13.8538Z" fill="#DDE6FF"/>
</g>
<path d="M208.621 7.83618H208.621C201.993 7.83618 196.621 13.2086 196.621 19.8359V19.8365C196.621 26.4637 201.993 31.8362 208.621 31.8362H208.621C215.249 31.8362 220.621 26.4637 220.621 19.8365V19.8359C220.621 13.2086 215.249 7.83618 208.621 7.83618Z" fill="#211E36"/>
<g clip-path="url(#clip2_1_996)">
<path d="M210.286 18.3877L217.177 10.3777H215.544L209.561 17.3327L204.782 10.3777H199.27L206.497 20.8949L199.27 29.2947H200.903L207.222 21.9499L212.268 29.2947H217.78L210.286 18.3877H210.286ZM208.05 20.9876L207.317 19.9403L201.491 11.607H204L208.701 18.3322L209.433 19.3795L215.545 28.1213H213.037L208.05 20.988V20.9876Z" fill="#DDE6FF"/>
</g>
<defs>
<clipPath id="clip0_1_996">
<rect width="26.6667" height="26.6667" fill="white" transform="translate(3.16666 6.50293)"/>
</clipPath>
<clipPath id="clip1_1_996">
<rect width="24" height="24" fill="white" transform="translate(156.621 7.83618)"/>
</clipPath>
<clipPath id="clip2_1_996">
<rect width="18.917" height="18.917" fill="white" transform="translate(199.067 10.3777)"/>
</clipPath>
</defs>
</svg>
